<?xml version="1.0" encoding="utf-8"?>
<!-- Generator: Adobe Illustrator 16.0.0, SVG Export Plug-In . SVG Version: 6.00 Build 0)  -->
<!DOCTYPE svg PUBLIC "-//W3C//DTD SVG 1.1//EN" "http://www.w3.org/Graphics/SVG/1.1/DTD/svg11.dtd">
<svg version="1.1" id="Layer_1" xmlns="http://www.w3.org/2000/svg" xmlns:xlink="http://www.w3.org/1999/xlink" x="0px" y="0px"
	 width="63.999px" height="75.938px" viewBox="0 0 63.999 75.938" enable-background="new 0 0 63.999 75.938" xml:space="preserve">
<g id="Ã_x008d_Â_x00bc_Â_x00b2_Ã_x00a3__1">
	<g id="_82083312">
		<polygon id="_82092416" fill="#003776" points="51.537,59.916 31.996,24.81 12.452,59.916 9.712,59.241 31.996,19.212 
			54.28,59.241 		"/>
		<path id="_82090904" fill="#003776" d="M31.996,45.702c-7.966,0-15.3-2.897-19.137-7.551l2.562-0.934
			c3.326,4.033,9.676,6.54,16.574,6.54c6.897-0.001,13.249-2.508,16.574-6.54l2.562,0.934
			C47.294,42.806,39.962,45.702,31.996,45.702L31.996,45.702z"/>
		<polygon id="_82089928" fill="#003776" points="33.457,17.392 30.532,17.392 30.532,12.507 33.457,12.507 		"/>
		<path id="_82088792" fill="#003776" d="M31.184,11.534h1.623V7.914h-1.623V11.534z M35.731,13.48H28.26V5.969h7.471V13.48z"/>
		<polygon id="_82086912" fill="#003776" points="33.457,47.229 30.532,47.229 30.532,42.22 33.457,42.22 		"/>
		<path id="_82086240" fill="#003776" d="M31.996,16.172c-3.231,0-5.859,1.747-5.859,3.895c0,2.15,2.628,3.899,5.858,3.899
			c3.23-0.001,5.858-1.75,5.858-3.899C37.854,17.919,35.225,16.172,31.996,16.172z M31.996,25.91c-4.844,0-8.783-2.622-8.783-5.844
			c0-3.22,3.938-5.839,8.782-5.839c4.843,0,8.782,2.62,8.782,5.839C40.776,23.288,36.837,25.91,31.996,25.91z"/>
		<path id="_82083464" fill="#003776" d="M63.451,53.438l-2.845-0.445c0.206-0.58,0.373-1.176,0.498-1.771l2.895,0.265
			C63.862,52.143,63.676,52.797,63.451,53.438z M0.551,53.474c-0.228-0.642-0.413-1.297-0.552-1.947l2.894-0.275
			c0.126,0.596,0.293,1.191,0.501,1.772L0.551,53.474z M61.555,57.197l-2.674-0.787c0.366-0.549,0.696-1.115,0.982-1.681l2.77,0.614
			C62.32,55.97,61.956,56.589,61.555,57.197z M2.459,57.231c-0.402-0.605-0.767-1.225-1.085-1.851l2.77-0.62
			c0.29,0.564,0.62,1.131,0.986,1.681L2.459,57.231z M58.648,60.653l-2.409-1.1c0.51-0.492,0.992-1.011,1.432-1.532l2.552,0.951
			C59.737,59.548,59.206,60.113,58.648,60.653z M5.373,60.682c-0.563-0.541-1.095-1.109-1.579-1.681l2.551-0.95
			c0.439,0.521,0.922,1.036,1.434,1.53L5.373,60.682z M54.838,63.7l-2.064-1.376c0.636-0.421,1.249-0.87,1.827-1.331l2.247,1.241
			C56.214,62.745,55.538,63.236,54.838,63.7z M9.189,63.726c-0.703-0.466-1.379-0.957-2.013-1.461l2.243-1.247
			c0.577,0.462,1.192,0.906,1.832,1.331L9.189,63.726z M50.26,66.231l-1.654-1.6c0.743-0.34,1.47-0.706,2.162-1.092l1.868,1.496
			C51.877,65.456,51.076,65.862,50.26,66.231z M13.775,66.252c-0.818-0.369-1.617-0.77-2.38-1.191l1.864-1.501
			c0.693,0.386,1.423,0.752,2.167,1.087L13.775,66.252z M45.058,68.163l-1.185-1.776c0.823-0.245,1.64-0.515,2.427-0.805
			l1.425,1.696C46.858,67.599,45.961,67.899,45.058,68.163z M18.982,68.178c-0.903-0.264-1.801-0.56-2.67-0.881l1.419-1.702
			c0.792,0.292,1.608,0.562,2.43,0.802L18.982,68.178z M39.409,69.425l-0.667-1.897c0.876-0.135,1.754-0.3,2.606-0.489l0.929,1.84
			C41.34,69.088,40.375,69.276,39.409,69.425z M24.632,69.434c-0.964-0.15-1.929-0.33-2.869-0.54l0.925-1.847
			c0.854,0.191,1.729,0.355,2.606,0.49L24.632,69.434z M33.512,69.969l-0.135-1.94c0.904-0.03,1.812-0.086,2.699-0.166l0.401,1.921
			C35.502,69.879,34.504,69.94,33.512,69.969z M30.531,69.969c-0.991-0.029-1.989-0.089-2.968-0.18l0.396-1.928
			c0.89,0.087,1.799,0.142,2.701,0.167L30.531,69.969z"/>
	</g>
</g>
</svg>
