<?xml version="1.0" encoding="utf-8"?>
<!-- Generator: Adobe Illustrator 16.0.0, SVG Export Plug-In . SVG Version: 6.00 Build 0)  -->
<!DOCTYPE svg PUBLIC "-//W3C//DTD SVG 1.1//EN" "http://www.w3.org/Graphics/SVG/1.1/DTD/svg11.dtd">
<svg version="1.1" id="Layer_1" xmlns="http://www.w3.org/2000/svg" xmlns:xlink="http://www.w3.org/1999/xlink" x="0px" y="0px"
	 width="64.111px" height="65.377px" viewBox="0 0 64.111 65.377" enable-background="new 0 0 64.111 65.377" xml:space="preserve">
<g id="Ã_x008d_Â_x00bc_Â_x00b2_Ã_x00a3__1">
	<g id="_98550744">
		<path id="_119188864" fill="#003776" d="M11.011,39.837h2.305v-2.791h-2.305V39.837z M15.622,42.098H8.713v-7.305h6.91
			L15.622,42.098L15.622,42.098z"/>
		<path id="_115401920" fill="#003776" d="M20.933,39.837h2.304v-6.26h-2.304V39.837z M25.538,42.098h-6.911V31.322h6.911V42.098z"
			/>
		<path id="_97238400" fill="#003776" d="M30.847,39.837h2.305v-9.729h-2.305V39.837z M35.459,42.098h-6.91V27.853h6.91V42.098z"/>
		<path id="_113323728" fill="#003776" d="M40.767,39.837h2.302V26.638h-2.302V39.837z M45.372,42.098h-6.909V24.383h6.909V42.098z"
			/>
		<path id="_101177008" fill="#003776" d="M50.683,39.837h2.306V23.168h-2.306V39.837z M55.29,42.098h-6.907v-21.19h6.907V42.098z"
			/>
		<path id="_116338792" fill="#003776" d="M2.306,48.694h59.387v-2.081H2.306V48.694L2.306,48.694z M64,50.954H0v-6.597h64V50.954z"
			/>
		<path id="_87813200" fill="#003776" d="M28.032,5.03h7.935V2.949h-7.935V5.03z M38.273,7.291h-12.54V0.688h12.54V7.291z"/>
		<polygon id="_101459536" fill="#003776" points="60.918,13.417 58.612,13.417 58.612,7.291 52.36,7.291 52.36,5.03 60.918,5.03 		
			"/>
		<polygon id="_31685264" fill="#003776" points="60.918,46.613 3.087,46.613 3.087,5.03 48.046,5.03 48.046,7.291 5.387,7.291 
			5.387,44.357 58.612,44.357 58.612,17.648 60.918,17.648 		"/>
		<polygon id="_32059256" fill="#003776" points="33.152,63.555 30.847,63.555 30.847,49.822 33.152,49.822 		"/>
		<polygon id="_114566976" fill="#003776" points="46.191,64.688 17.808,64.688 17.808,62.428 46.191,62.428 		"/>
		<polygon id="_98557800" fill="#003776" points="5.051,31.712 3.427,30.113 14.331,19.415 19.38,24.36 29.477,14.462 
			34.527,19.415 44.62,9.509 49.67,14.462 58.952,5.361 60.581,6.96 49.67,17.659 44.62,12.707 34.527,22.604 29.477,17.659 
			19.38,27.556 14.331,22.604 		"/>
	</g>
</g>
</svg>
