<?xml version="1.0" encoding="utf-8"?>
<!-- Generator: Adobe Illustrator 16.0.0, SVG Export Plug-In . SVG Version: 6.00 Build 0)  -->
<!DOCTYPE svg PUBLIC "-//W3C//DTD SVG 1.1//EN" "http://www.w3.org/Graphics/SVG/1.1/DTD/svg11.dtd">
<svg version="1.1" id="Layer_1" xmlns="http://www.w3.org/2000/svg" xmlns:xlink="http://www.w3.org/1999/xlink" x="0px" y="0px"
	 width="64.796px" height="64.789px" viewBox="0 0 64.796 64.789" enable-background="new 0 0 64.796 64.789" xml:space="preserve">
<g id="Ã_x008d_Â_x00bc_Â_x00b2_Ã_x00a3__1">
	<g id="_82093408">
		<polygon id="_82111864" fill="#003776" points="45.04,33.2 43.427,31.589 60.776,14.238 50.154,3.617 32.809,20.964 
			31.197,19.353 50.154,0.395 64,14.237 		"/>
		<polygon id="_82111072" fill="#003776" points="13.847,64.395 0,50.554 18.968,31.589 20.579,33.2 3.223,50.554 13.847,61.173 
			31.197,43.82 32.809,45.432 		"/>
		<polygon id="_82110096" fill="#003776" points="8.62,51.699 4.542,47.621 6.154,46.009 10.231,50.087 		"/>
		<polygon id="_82109120" fill="#003776" points="12.354,47.964 8.276,43.889 9.889,42.274 13.965,46.354 		"/>
		<polygon id="_82108112" fill="#003776" points="16.086,44.23 12.011,40.152 13.622,38.541 17.698,42.619 		"/>
		<polygon id="_82107136" fill="#003776" points="19.821,40.496 15.744,36.418 17.355,34.807 21.432,38.885 		"/>
		<polygon id="_82106024" fill="#003776" points="38.493,21.826 34.413,17.749 36.023,16.137 40.103,20.214 		"/>
		<polygon id="_82105048" fill="#003776" points="42.225,18.09 38.147,14.014 39.758,12.403 43.836,16.479 		"/>
		<polygon id="_82104040" fill="#003776" points="45.96,14.357 41.88,10.28 43.491,8.667 47.571,12.744 		"/>
		<polygon id="_82102888" fill="#003776" points="49.694,10.624 45.615,6.547 47.225,4.933 51.304,9.011 		"/>
		<polygon id="_82101936" fill="#003776" points="53.385,59.897 59.5,59.896 59.5,53.78 		"/>
		<path id="_82100728" fill="#003776" d="M11.503,22.514L47.27,58.284l2.466-2.466l-35.767-35.77L11.503,22.514L11.503,22.514z
			 M47.27,61.035c-0.291,0-0.583-0.109-0.807-0.333L9.085,23.32c-0.214-0.215-0.334-0.503-0.334-0.805
			c0-0.303,0.12-0.594,0.334-0.806l4.077-4.078c0.444-0.445,1.166-0.445,1.611,0.001l37.379,37.38
			c0.214,0.214,0.334,0.504,0.334,0.806c0,0.301-0.12,0.593-0.334,0.805l-4.078,4.078C47.853,60.926,47.561,61.035,47.27,61.035
			L47.27,61.035z"/>
		<path id="_82099152" fill="#003776" d="M15.58,18.437l35.767,35.771l2.468-2.466l-35.77-35.771L15.58,18.437L15.58,18.437z
			 M51.346,56.959c-0.291,0-0.582-0.112-0.804-0.334L13.164,19.242c-0.445-0.445-0.445-1.166,0-1.611l4.077-4.078
			c0.428-0.427,1.183-0.427,1.611,0l37.381,37.382c0.214,0.215,0.334,0.505,0.334,0.807c0,0.301-0.12,0.592-0.335,0.805
			l-4.078,4.078C51.931,56.847,51.639,56.959,51.346,56.959L51.346,56.959z"/>
		<path id="_82097984" fill="#003776" d="M19.655,14.359l35.77,35.771l2.464-2.468l-35.767-35.77L19.655,14.359L19.655,14.359z
			 M55.424,52.881c-0.302,0-0.591-0.118-0.804-0.333L17.239,15.165c-0.446-0.445-0.446-1.166,0-1.611l4.077-4.079
			c0.428-0.429,1.183-0.428,1.61,0l37.378,37.381c0.445,0.445,0.445,1.167,0.001,1.611l-4.075,4.081
			C56.017,52.761,55.728,52.881,55.424,52.881L55.424,52.881L55.424,52.881z"/>
		<polygon id="_82096992" fill="#003776" points="47.27,61.035 47.27,58.756 58.361,58.756 58.361,47.663 60.639,47.663 
			60.639,61.035 		"/>
		<path id="_82095384" fill="#003776" d="M8.646,19.659l1.245,1.243l10.62-10.622l-1.244-1.243L8.646,19.659z M9.892,23.653
			c-0.292,0-0.583-0.11-0.805-0.332l-2.858-2.855c-0.214-0.214-0.334-0.503-0.334-0.806s0.12-0.593,0.334-0.805L18.461,6.62
			c0.444-0.443,1.166-0.444,1.611,0.001l2.855,2.855c0.215,0.213,0.334,0.503,0.334,0.805c0,0.303-0.12,0.592-0.334,0.806
			L10.697,23.32C10.474,23.542,10.183,23.654,9.892,23.653L9.892,23.653z"/>
		<path id="_82093528" fill="#003776" d="M13.153,6.033c-2.006,0-3.894,0.781-5.314,2.2c-1.418,1.417-2.2,3.305-2.2,5.311
			c0,1.622,0.51,3.164,1.455,4.445l10.5-10.501C16.315,6.543,14.773,6.033,13.153,6.033z M7.034,21.271l-0.806-0.805
			c-1.85-1.848-2.868-4.306-2.868-6.922c0-2.615,1.018-5.075,2.868-6.923c1.851-1.848,4.309-2.866,6.924-2.866
			c2.614,0,5.072,1.018,6.92,2.866l0.805,0.806L7.034,21.271L7.034,21.271z"/>
	</g>
</g>
</svg>
