<?xml version="1.0" encoding="utf-8"?>
<!-- Generator: Adobe Illustrator 16.0.0, SVG Export Plug-In . SVG Version: 6.00 Build 0)  -->
<!DOCTYPE svg PUBLIC "-//W3C//DTD SVG 1.1//EN" "http://www.w3.org/Graphics/SVG/1.1/DTD/svg11.dtd">
<svg version="1.1" id="Layer_1" xmlns="http://www.w3.org/2000/svg" xmlns:xlink="http://www.w3.org/1999/xlink" x="0px" y="0px"
	 width="67.77px" height="67.746px" viewBox="0 0 67.77 67.746" enable-background="new 0 0 67.77 67.746" xml:space="preserve">
<g id="Ã_x008d_Â_x00bc_Â_x00b2_Ã_x00a3__1">
	<g id="_81997456">
		<polygon id="_82025888" fill="#003776" points="64,65.755 25.695,65.755 25.695,63.572 61.823,63.572 61.823,12.569 53.324,4.067 
			25.695,4.067 25.695,1.873 54.226,1.873 64,11.671 		"/>
		<polygon id="_82024896" fill="#003776" points="62.912,13.208 52.684,13.208 52.684,2.978 54.86,2.978 54.86,11.032 
			62.912,11.032 		"/>
		<path id="_82023872" fill="#003776" d="M32.092,57.006h2.657v-2.665h-2.657V57.006z M36.932,59.181h-7.021v-7.015h7.021V59.181z"
			/>
		<polygon id="_82022896" fill="#003776" points="49.142,54.341 39.469,54.341 39.469,52.166 49.142,52.166 		"/>
		<polygon id="_82021888" fill="#003776" points="58.819,59.181 39.469,59.181 39.469,57.006 58.819,57.006 		"/>
		<path id="_82020752" fill="#003776" d="M32.092,47.324h2.657v-2.663h-2.657V47.324z M36.932,49.501h-7.021v-7.017h7.021V49.501z"
			/>
		<polygon id="_82019640" fill="#003776" points="49.142,44.66 39.469,44.66 39.469,42.484 49.142,42.484 		"/>
		<polygon id="_82018664" fill="#003776" points="58.819,49.501 39.469,49.501 39.469,47.324 58.819,47.324 		"/>
		<polygon id="_82017672" fill="#003776" points="49.142,34.984 39.469,34.984 39.469,32.805 49.142,32.805 		"/>
		<polygon id="_82016696" fill="#003776" points="58.819,39.82 39.469,39.82 39.469,37.645 58.819,37.645 		"/>
		<polygon id="_82015704" fill="#003776" points="32.76,39.759 29.502,36.501 31.044,34.958 32.765,36.679 35.799,33.64 
			37.34,35.183 		"/>
		<polygon id="_82014728" fill="#003776" points="49.142,25.306 39.469,25.306 39.469,23.13 49.142,23.13 		"/>
		<polygon id="_82013720" fill="#003776" points="58.819,30.146 39.469,30.146 39.469,27.97 58.819,27.97 		"/>
		<polygon id="_82012728" fill="#003776" points="32.76,30.078 29.502,26.82 31.044,25.277 32.765,27 35.799,23.965 37.34,25.502 		
			"/>
		<polygon id="_82011752" fill="#003776" points="49.142,15.625 39.469,15.625 39.469,13.448 49.142,13.448 		"/>
		<polygon id="_82010776" fill="#003776" points="58.819,20.466 39.469,20.466 39.469,18.289 58.819,18.289 		"/>
		<polygon id="_82009616" fill="#003776" points="32.76,20.397 29.502,17.14 31.044,15.604 32.765,17.319 35.799,14.285 
			37.34,15.822 		"/>
		<polygon id="_82008640" fill="#003776" points="32.21,10.786 29.794,10.786 29.794,8.609 32.21,8.609 		"/>
		<polygon id="_82007664" fill="#003776" points="37.049,10.786 34.631,10.786 34.631,8.609 37.049,8.609 		"/>
		<polygon id="_82006688" fill="#003776" points="41.886,10.786 39.469,10.786 39.469,8.609 41.886,8.609 		"/>
		<path id="_82005488" fill="#003776" d="M13.395,4.05c-2.922,0-5.293,2.379-5.293,5.294c0,2.922,2.371,5.294,5.292,5.294
			c2.917,0,5.292-2.373,5.292-5.294C18.686,6.427,16.31,4.05,13.395,4.05L13.395,4.05z M13.395,16.814
			c-4.122,0-7.469-3.348-7.469-7.471c0.001-4.117,3.347-7.471,7.468-7.471c4.115,0,7.468,3.354,7.468,7.471
			C20.862,13.465,17.51,16.814,13.395,16.814z"/>
		<polygon id="_82004512" fill="#003776" points="14.482,65.873 12.307,65.873 12.307,46.725 14.482,46.725 		"/>
		<polygon id="_82003536" fill="#003776" points="7.648,65.873 5.466,65.873 5.466,39.434 7.648,39.434 		"/>
		<polygon id="_82002560" fill="#003776" points="21.317,65.873 19.141,65.873 19.141,39.434 21.317,39.434 		"/>
		<path id="_82001240" fill="#003776" d="M26.789,44.167h-6.56V41.99h4.379V27.123c0-1.537-0.596-2.978-1.683-4.066
			c-1.082-1.083-2.529-1.683-4.064-1.683h-0.661l-4.805,4.807L8.59,21.375H7.923c-1.53,0-2.978,0.6-4.061,1.683
			c-1.086,1.087-1.687,2.53-1.687,4.066l0,14.868H6.56v2.176H0V27.123c0-2.114,0.824-4.106,2.321-5.603
			c1.498-1.498,3.487-2.322,5.602-2.322h1.57l3.904,3.904l3.901-3.904h1.564c2.118,0,4.109,0.825,5.606,2.322
			c1.497,1.497,2.321,3.489,2.321,5.603V44.167L26.789,44.167z"/>
		<polygon id="_82000264" fill="#003776" points="14.482,30.454 12.307,30.454 12.307,28.037 14.482,28.037 		"/>
		<polygon id="_81998240" fill="#003776" points="14.482,35.295 12.307,35.295 12.307,32.877 14.482,32.877 		"/>
	</g>
</g>
</svg>
