<?xml version="1.0" encoding="utf-8"?>
<!-- Generator: Adobe Illustrator 16.0.0, SVG Export Plug-In . SVG Version: 6.00 Build 0)  -->
<!DOCTYPE svg PUBLIC "-//W3C//DTD SVG 1.1//EN" "http://www.w3.org/Graphics/SVG/1.1/DTD/svg11.dtd">
<svg version="1.1" id="Layer_1" xmlns="http://www.w3.org/2000/svg" xmlns:xlink="http://www.w3.org/1999/xlink" x="0px" y="0px"
	 width="63.999px" height="64px" viewBox="0 -3.025 63.999 64" enable-background="new 0 -3.025 63.999 64" xml:space="preserve">
<g id="Ã_x008d_Â_x00bc_Â_x00b2_Ã_x00a3__1">
	<g id="_82039712">
		<polygon id="_82059336" fill="#003776" points="42.262,60.975 21.737,60.975 21.737,53.776 24.146,53.776 24.146,58.432 
			39.853,58.432 39.853,53.776 42.262,53.776 		"/>
		<polygon id="_82058360" fill="#003776" points="46.227,60.975 17.773,60.975 17.773,58.432 46.227,58.432 		"/>
		<path id="_82057568" fill="#003776" d="M2.409,41.049h59.182v-40.5c0-0.276-0.103-0.531-0.286-0.728
			c-0.183-0.191-0.425-0.295-0.685-0.295H3.378c-0.258,0-0.503,0.105-0.688,0.301c-0.18,0.19-0.281,0.445-0.281,0.721V41.049
			L2.409,41.049z M64,43.6H0V0.548C0-0.402,0.35-1.3,0.986-1.976c0.643-0.676,1.492-1.049,2.393-1.049H60.62
			c0.905,0,1.756,0.374,2.39,1.05c0.638,0.675,0.988,1.574,0.988,2.524L64,43.6L64,43.6z"/>
		<path id="_82055912" fill="#003776" d="M2.409,43.6v4.084c0,0.269,0.1,0.525,0.283,0.722c0.184,0.196,0.425,0.296,0.685,0.296
			H60.62c0.262,0,0.503-0.1,0.681-0.289c0.189-0.203,0.289-0.46,0.289-0.728V43.6H2.409L2.409,43.6z M60.62,51.251H3.377
			c-0.908,0-1.757-0.374-2.391-1.049C0.352,49.532,0,48.634,0,47.685v-6.637h63.999v6.636c0,0.95-0.353,1.85-0.991,2.525
			C62.378,50.877,61.529,51.251,60.62,51.251L60.62,51.251z"/>
		<path id="_82054856" fill="#003776" d="M7.542,35.634h48.916V4.947H7.542V35.634z M58.866,38.177H5.132V2.396h53.734V38.177z"/>
		<path id="_82053688" fill="#003776" d="M32.001,12.678c-3.972,0-7.204,3.41-7.204,7.606c0,4.203,3.232,7.613,7.204,7.613
			c3.972,0,7.204-3.409,7.204-7.613C39.205,16.088,35.973,12.678,32.001,12.678z M32.001,30.448c-5.301,0-9.613-4.558-9.613-10.164
			c0-5.599,4.312-10.156,9.613-10.156c5.3,0,9.612,4.556,9.612,10.156C41.613,25.89,37.301,30.448,32.001,30.448z"/>
		<path id="_82052520" fill="#003776" d="M32.001,18.263c-1.053,0-1.908,0.913-1.908,2.02c0,1.115,0.855,2.027,1.908,2.027
			c1.051,0,1.906-0.912,1.906-2.027C33.907,19.176,33.052,18.264,32.001,18.263z M32.001,24.854c-2.382,0-4.318-2.045-4.318-4.57
			c0-2.511,1.937-4.563,4.318-4.563c2.379,0,4.317,2.052,4.317,4.563C36.318,22.808,34.381,24.854,32.001,24.854z"/>
		<polygon id="_82051408" fill="#003776" points="33.205,11.406 30.796,11.406 30.796,7.839 33.205,7.839 		"/>
		<polygon id="_82050424" fill="#003776" points="26.752,13.228 25.065,10.14 27.153,8.869 28.839,11.956 		"/>
		<polygon id="_82049448" fill="#003776" points="24.115,16.953 21.194,15.163 22.402,12.96 25.322,14.75 		"/>
		<polygon id="_82048472" fill="#003776" points="23.593,21.563 20.218,21.563 20.218,19.012 23.593,19.012 		"/>
		<polygon id="_82047496" fill="#003776" points="22.402,27.615 21.194,25.411 24.115,23.621 25.322,25.824 		"/>
		<polygon id="_82046488" fill="#003776" points="27.153,31.705 25.065,30.433 26.752,27.345 28.839,28.617 		"/>
		<polygon id="_82045512" fill="#003776" points="33.205,32.734 30.796,32.734 30.796,29.175 33.205,29.175 		"/>
		<polygon id="_82044536" fill="#003776" points="36.848,31.705 35.161,28.617 37.248,27.345 38.935,30.433 		"/>
		<polygon id="_82043560" fill="#003776" points="41.602,27.615 38.681,25.824 39.886,23.621 42.807,25.405 		"/>
		<polygon id="_82042552" fill="#003776" points="43.783,21.563 40.409,21.563 40.409,19.012 43.783,19.012 		"/>
		<polygon id="_82041440" fill="#003776" points="39.886,16.953 38.679,14.75 41.601,12.96 42.809,15.163 		"/>
		<polygon id="_82039832" fill="#003776" points="37.248,13.228 35.161,11.956 36.848,8.869 38.935,10.146 		"/>
	</g>
</g>
</svg>
