<?xml version="1.0" encoding="utf-8"?>
<!-- Generator: Adobe Illustrator 16.0.0, SVG Export Plug-In . SVG Version: 6.00 Build 0)  -->
<!DOCTYPE svg PUBLIC "-//W3C//DTD SVG 1.1//EN" "http://www.w3.org/Graphics/SVG/1.1/DTD/svg11.dtd">
<svg version="1.1" id="Layer_1" xmlns="http://www.w3.org/2000/svg" xmlns:xlink="http://www.w3.org/1999/xlink" x="0px" y="0px"
	 width="213px" height="213px" viewBox="0 0 213 213" enable-background="new 0 0 213 213" xml:space="preserve">
<g>
	<g>
		<path fill="#0767B2" d="M203.295,204.727H8.76c-1.512,0-2.732-1.221-2.732-2.733V9.882c0-1.503,1.221-2.724,2.732-2.724h194.535
			c1.512,0,2.732,1.221,2.732,2.724v192.111C206.027,203.506,204.807,204.727,203.295,204.727z M11.483,199.27h189.088V12.605
			H11.483V199.27z"/>
	</g>
	<path fill="#73BF44" d="M106.032,57.917H32.52c-1.503,0-2.724-1.221-2.724-2.724c0-1.512,1.221-2.724,2.724-2.724h73.513
		c1.512,0,2.724,1.212,2.724,2.724C108.756,56.696,107.544,57.917,106.032,57.917z"/>
	<path fill="#73BF44" d="M176.963,82.446H32.52c-1.503,0-2.724-1.221-2.724-2.724c0-1.512,1.221-2.732,2.724-2.732h144.443
		c1.502,0,2.723,1.221,2.723,2.732C179.686,81.226,178.465,82.446,176.963,82.446z"/>
	<path fill="#73BF44" d="M106.032,106.976H32.52c-1.503,0-2.724-1.221-2.724-2.733c0-1.502,1.221-2.723,2.724-2.723h73.513
		c1.512,0,2.724,1.221,2.724,2.723C108.756,105.755,107.544,106.976,106.032,106.976z"/>
	<path fill="#73BF44" d="M106.032,156.024H32.52c-1.503,0-2.724-1.221-2.724-2.724c0-1.502,1.221-2.723,2.724-2.723h73.513
		c1.512,0,2.724,1.221,2.724,2.723C108.756,154.804,107.544,156.024,106.032,156.024z"/>
	<path fill="#73BF44" d="M176.963,131.495H32.52c-1.503,0-2.724-1.211-2.724-2.724c0-1.502,1.221-2.723,2.724-2.723h144.443
		c1.502,0,2.723,1.221,2.723,2.723C179.686,130.284,178.465,131.495,176.963,131.495z"/>
</g>
<g id="Layer_2">
	<text transform="matrix(1 0 0 1 32 34)" fill="#939393" font-family="'Montserrat-Regular'" font-size="13">Resume</text>
</g>
</svg>
