<?xml version="1.0" encoding="UTF-8"?>
<!DOCTYPE svg PUBLIC "-//W3C//DTD SVG 1.1//EN" "http://www.w3.org/Graphics/SVG/1.1/DTD/svg11.dtd">
<!-- Creator: CorelDRAW -->
<svg xmlns="http://www.w3.org/2000/svg" xml:space="preserve" width="0.77739in" height="0.989972in" style="shape-rendering:geometricPrecision; text-rendering:geometricPrecision; image-rendering:optimizeQuality; fill-rule:evenodd; clip-rule:evenodd"
viewBox="0 0 0.0172382 0.0219521"
 xmlns:xlink="http://www.w3.org/1999/xlink">
 <defs>
  <style type="text/css">
   <![CDATA[
    .fil0 {fill:#5F7D22}
   ]]>
  </style>
 </defs>
 <g id="Ã_x008d_Â_x00bc_Â_x00b2_Ã_x00a3__1">
  <metadata id="CorelCorpID_0Corel-Layer"/>
  <g id="_82204432">
   <polygon id="_82210776" class="fil0" points="0.0121607,0.021952 0.00995753,0.0173352 0.0105994,0.017028 0.0120639,0.020098 0.0128537,0.0178673 0.0150844,0.0186571 0.0136527,0.0156567 0.0142945,0.0153496 0.0164648,0.0198987 0.0132869,0.0187741 "/>
   <polygon id="_82209760" class="fil0" points="0.00507742,0.021952 0.00395124,0.0187741 0.000773398,0.0198987 0.0029437,0.0153496 0.00358544,0.0156567 0.00215389,0.0186571 0.00438442,0.0178673 0.00517432,0.020098 0.00663888,0.017028 0.00728063,0.0173352 "/>
   <path id="_82208968" class="fil0" d="M0.00861904 0.00410663c-0.00245909,0 -0.00446133,0.00200032 -0.00446133,0.00446133 0,0.00245926 0.00200207,0.0044595 0.00446133,0.0044595 0.00245935,0 0.00446133,-0.00200024 0.00446133,-0.0044595 8.73008e-008,-0.00246101 -0.00200216,-0.00446125 -0.00446133,-0.00446133zm0 0.00963207c-0.00285055,0 -0.00517083,-0.00232019 -0.00517083,-0.00517074 8.73008e-008,-0.00285238 0.00232028,-0.00517249 0.00517083,-0.00517249 0.00285247,0 0.00517074,0.00232019 0.00517074,0.00517249 8.73008e-008,0.00285055 -0.00231845,0.00517083 -0.00517074,0.00517074z"/>
   <path id="_82207952" class="fil0" d="M0.00861904 0.0097254l0.00106778 0.000561257 -0.000202974 -0.00118843 0.000863143 -0.000842977 -0.00119393 -0.000171808 -0.000534019 -0.00108244 -0.000533932 0.00108244 -0.00119201 0.000171808 0.000863056 0.000842977 -0.000204808 0.00118843 0.00106769 -0.000561257zm-0.00201124 0.00185942l0.000384036 -0.00223979 -0.00162729 -0.00158521 0.00224887 -0.000327291 0.00100562 -0.00203682 0.00100571 0.00203682 0.00224887 0.000327291 -0.00162729 0.00158521 0.000384036 0.00223979 -0.00201132 -0.00105678 -0.00201124 0.00105678z"/>
   <path id="_82205184" class="fil0" d="M0.00728246 0.0147645l0.00133658 0.00136582 0.00133666 -0.00136582 0.00177544 0.000703994 0.000665582 -0.00179002 0.00190866 -8.04914e-005 -0.000118642 -0.00190525 0.00171136 -0.000850135 -0.000886802 -0.00169311 0.00121776 -0.00147189 -0.0014959 -0.00118668 0.000513853 -0.00183934 -0.00185017 -0.00047352 -0.000279799 -0.00189067 -0.00188334 0.000320045 -0.00102395 -0.00161454 -0.00158879 0.00105861 -0.00159254 -0.00105861 -0.00102212 0.00161454 -0.00188517 -0.000320045 -0.000277879 0.00189067 -0.00185025 0.00047352 0.000513591 0.00183934 -0.00149747 0.00118668 0.00121793 0.00147189 -0.000885056 0.00169311 0.00171136 0.000850135 -0.000120562 0.00190525 0.00190892 8.04914e-005 0.000665407 0.00179002 0.00177535 -0.000703994zm0.0013385 0.00238061l-0.0015158 -0.00154505 -0.0020094 0.000795398 -0.000755152 -0.00202774 -0.00216122 -8.95706e-005 0.000135316 -0.00215939 -0.00193808 -0.000963539 0.00100195 -0.00191617 -0.00137857 -0.00166762 0.00169495 -0.00134382 -0.000581511 -0.00208256 0.00209539 -0.000539345 0.000316378 -0.00214105 0.00213372 0.000361949 0.00115927 -0.00182651 0.00180084 0.00119759 0.0018011 -0.00119759 0.00116093 0.00182651 0.00213372 -0.000361949 0.000316378 0.00214105 0.00209548 0.000539345 -0.000583431 0.00208256 0.00169495 0.00134382 -0.00137857 0.00166762 0.00100378 0.00191617 -0.00193808 0.000963539 0.000135404 0.00215939 -0.00216314 8.95706e-005 -0.000753232 0.00202774 -0.00201132 -0.000795398 -0.00151205 0.00154505z"/>
  </g>
 </g>
</svg>
