<?xml version="1.0" encoding="UTF-8"?>
<!DOCTYPE svg PUBLIC "-//W3C//DTD SVG 1.1//EN" "http://www.w3.org/Graphics/SVG/1.1/DTD/svg11.dtd">
<!-- Creator: CorelDRAW -->
<svg xmlns="http://www.w3.org/2000/svg" xml:space="preserve" width="2.5in" height="0.575512in" style="shape-rendering:geometricPrecision; text-rendering:geometricPrecision; image-rendering:optimizeQuality; fill-rule:evenodd; clip-rule:evenodd"
viewBox="0 0 0.12134 0.0279331"
 xmlns:xlink="http://www.w3.org/1999/xlink">
 <defs>
  <style type="text/css">
   <![CDATA[
    .fil3 {fill:#0093DD}
    .fil4 {fill:#84C225}
    .fil1 {fill:#005197}
    .fil6 {fill:#969594;fill-rule:nonzero}
    .fil2 {fill:white;fill-rule:nonzero}
    .fil0 {fill:#005197;fill-rule:nonzero}
    .fil5 {fill:#4BB033;fill-rule:nonzero}
   ]]>
  </style>
 </defs>
 <g id="Ã_x008d_Â_x00bc_Â_x00b2_Ã_x00a3__1">
  <metadata id="CorelCorpID_0Corel-Layer"/>
  <g id="_82118560">
   <g>
    <g>
     <path id="_82149072" class="fil0" d="M0.0788002 1.22296e-005l0 0.0186619 0.00373709 0c0,-0.00845063 0,-0.0102126 0,-0.0186619l-0.00373709 0zm0.00932714 0.0186619l0.0037411 0 0 -0.0186619 -0.0037411 0c0,0.00934682 0,0.00931319 0,0.0186619z"/>
     <path id="_82148376" class="fil1" d="M0.104035 1.22296e-005l0 0.00746634 0 0.00334612 0 0.000379116c0,0.00102709 -0.00036746,0.00190418 -0.00109818,0.00263509 -0.00073492,0.000726895 -0.00161201,0.00109416 -0.00262706,0.00109416l0 0c-0.00102728,0 -0.00190418,-0.000367269 -0.00263509,-0.00109416 -0.000726895,-0.000730907 -0.00109435,-0.001608 -0.00109435,-0.00263509l0 -0.000379116 0 -0.00334612 0 -0.00746634 -0.00373709 0 0 0.00746634 0 0.00372524c0,0.00206221 0.000730907,0.00382021 0.00218852,0.00527782 0.0014578,0.0014578 0.0032158,0.00219253 0.00527801,0.00219253l0 0c0.00205017,0 0.00380817,-0.000734729 0.00526979,-0.00219253 0.00146181,-0.00145761 0.00219253,-0.00321561 0.00219253,-0.00527782l0 -0.00372524 0 -0.00746634 -0.00373709 0z"/>
     <polygon id="_82141672" class="fil1" points="0.112938,1.22296e-005 0.108272,1.22296e-005 0.108272,0.00374148 0.112938,0.00374148 0.112938,0.0186742 0.116675,0.0186742 0.116675,0.00374148 0.12134,0.00374148 0.12134,1.22296e-005 0.116675,1.22296e-005 "/>
    </g>
    <g>
     <path id="_82143864" class="fil2" d="M0.0844906 0.0127593c-0.000192042,0.000120003 -0.000443895,0.000128219 -0.000647976,3.24848e-006 -6.87913e-006,-4.20391e-006 -1.35672e-005,-8.59891e-006 -2.00641e-005,-1.3185e-005 -3.516e-005,-2.38859e-005 -6.74537e-005,-5.08291e-005 -9.59256e-005,-8.02565e-005 -3.05739e-005,-3.13382e-005 -5.82815e-005,-6.72626e-005 -8.23584e-005,-0.000106053 -2.36948e-005,-3.82174e-005 -4.29945e-005,-7.89189e-005 -5.78993e-005,-0.000121149 -0.000134143,1.58602e-005 -0.00027421,-1.18474e-005 -0.000396696,-8.92376e-005l-1.91087e-007 -1.91087e-007 -1.91087e-007 3.82174e-007c-0.000122296,-7.60526e-005 -0.000208285,-0.000189367 -0.000252999,-0.000316058 -0.000133379,1.5287e-005 -0.000272681,-1.26117e-005 -0.000394977,-9.0193e-005l-1.91087e-007 3.82174e-007 -1.71978e-006 -1.14652e-006c-0.000142551,-8.96197e-005 -0.000235992,-0.000228158 -0.000271343,-0.000379881 -3.516e-005,-0.000149812 -1.33761e-005,-0.000313574 7.33774e-005,-0.000456507l-9.55434e-007 -5.73261e-007 2.10196e-006 -3.43956e-006c4.01282e-006,-6.87913e-006 8.02565e-006,-1.35672e-005 1.26117e-005,-2.00641e-005l8.61802e-005 -0.000137774 -0.000442175 -0.000237712c-9.2295e-005,5.80904e-005 -0.000201214,9.24861e-005 -0.000317204,9.24861e-005l0 -1.33761e-006 -0.00287949 0 0 1.33761e-006 -5.73261e-007 0 0 -1.33761e-006c-0.000164908,-3.82174e-007 -0.000315102,-6.80269e-005 -0.000423257,-0.000176755 -0.000107009,-0.000107582 -0.00017408,-0.000256439 -0.000174844,-0.000420582l0 -1.33761e-006 -1.14652e-006 0 0 -1.33761e-006 0 -5.73261e-007 1.14652e-006 0 0 -7.83456e-006c2.48413e-006,-0.000162233 6.95556e-005,-0.000308987 0.000175418,-0.000415041l5.73261e-007 -5.73261e-007 -5.73261e-007 -7.64348e-007c4.58609e-005,-4.58609e-005 9.93652e-005,-8.44604e-005 0.000158602,-0.000113888 -0.000106626,-2.71343e-005 -0.000201214,-8.19763e-005 -0.000275547,-0.0001565l-3.43956e-006 -3.24848e-006 -3.63065e-006 3.82174e-006c-8.79e-006,8.79e-006 -1.79622e-005,1.68156e-005 -2.77076e-005,2.4268e-005 -0.000104525,9.28682e-005 -0.000242489,0.000150194 -0.000394212,0.000150959l-1.33761e-006 0 0 1.14652e-006 -1.33761e-006 0 -0.000285484 0 -7.64348e-007 0 0 -1.14652e-006c-0.000164717,-3.82174e-007 -0.000315102,-6.84091e-005 -0.000423066,-0.000176946 -0.000106818,-0.000107773 -0.00017408,-0.00025663 -0.000174844,-0.0004202l0 -1.33761e-006 -1.33761e-006 0 0 -1.33761e-006 0 -5.73261e-007 1.33761e-006 0 0 -7.83456e-006c2.29304e-006,-0.000163188 6.93645e-005,-0.000310516 0.000175418,-0.000416952 3.61154e-005,-3.63065e-005 7.68169e-005,-6.8218e-005 0.000121149,-9.43969e-005l-0.000285484 0 -7.64348e-007 0 0 -1.33761e-006c-0.000166246,-3.82174e-007 -0.000316631,-6.80269e-005 -0.000424595,-0.000176564 -0.0001072,-0.000107773 -0.000173889,-0.000256821 -0.000174653,-0.000420964l0 -1.14652e-006 -1.33761e-006 0 0 -1.5287e-006 0 -5.73261e-007 1.33761e-006 0 0 -7.83456e-006c2.29304e-006,-0.000161277 6.87913e-005,-0.000308223 0.000174844,-0.000414659 0.000107964,-0.000107964 0.000257012,-0.0001758 0.000422493,-0.000176564l1.14652e-006 0 0 -1.14652e-006 1.5287e-006 0 0.000161086 0c-4.52876e-005,-2.637e-005 -8.65624e-005,-5.77082e-005 -0.00012306,-9.43969e-005 -8.40782e-006,-8.21674e-006 -1.62424e-005,-1.71978e-005 -2.36948e-005,-2.61789e-005 -9.36326e-005,-0.00010548 -0.000150768,-0.000243827 -0.000151341,-0.000395168l0 -1.33761e-006 -1.33761e-006 0 0 -1.33761e-006 0 -5.73261e-007 1.33761e-006 0 0 -7.83456e-006c2.29304e-006,-0.000162997 6.91735e-005,-0.000310134 0.000175418,-0.000416569l5.73261e-007 -7.64348e-007 -5.73261e-007 -5.73261e-007c0.000107391,-0.000107391 0.000257012,-0.000174462 0.000422684,-0.000175227l1.14652e-006 0 0 -1.33761e-006 1.5287e-006 0 0.00312045 0 3.43956e-006 0c1.22296e-005,0 2.38859e-005,5.73261e-007 3.55422e-005,1.91087e-006 0.000215737,8.79e-006 0.000389435,8.73267e-005 0.000491093,0.000135481l1.66246e-005 8.21674e-006 2.04463e-005 9.74543e-006 3.82174e-007 -7.64348e-007 0.00194507 0.000875942c1.91087e-005,8.59891e-006 3.68798e-005,1.87265e-005 5.35043e-005,3.03828e-005l1.14652e-006 7.64348e-007 1.71978e-006 1.33761e-006c3.82174e-005,2.59878e-005 7.10843e-005,5.69439e-005 9.87919e-005,9.07663e-005 3.22937e-005,3.9555e-005 5.59885e-005,8.15941e-005 7.28041e-005,0.000124589 4.20391e-006,1.05098e-005 7.64348e-006,2.12106e-005 1.05098e-005,3.19115e-005 4.45232e-005,0.00014599 1.28028e-005,0.000308796 -3.3058e-005,0.000414276l1.26117e-005 5.35043e-006c3.63065e-005,-5.15935e-006 8.40782e-005,-1.50959e-005 0.000114843,-3.36313e-005 9.17217e-006,-5.73261e-006 1.81533e-005,-1.07009e-005 2.77076e-005,-1.5287e-005 1.16563e-005,-5.92369e-006 0.000771418,-0.000395741 0.00102251,-0.000481348 8.40782e-005,-2.84719e-005 0.000171787,-2.00641e-005 0.000245547,1.66246e-005 8.80911e-005,-5.56063e-005 0.000194909,-0.000100703 0.000369753,-0.000148283l1.91087e-007 5.73261e-007c0.00023026,-6.36319e-005 0.000437971,-8.40782e-005 0.000658103,-4.96826e-005 0.000111213,1.73889e-005 0.00022147,4.77717e-005 0.000334211,9.30593e-005 6.26765e-005,2.52235e-005 0.000127073,5.25489e-005 0.000195291,8.27406e-005 8.63713e-005,3.82174e-005 0.000172551,7.73902e-005 0.000262171,0.000119238l-3.82174e-007 7.64348e-007c0.000307459,0.000141404 0.00075422,0.000368416 0.000755366,0.000368989 7.64348e-006,3.82174e-006 1.5287e-005,8.02565e-006 2.25483e-005,1.26117e-005 3.09561e-005,1.85354e-005 7.85367e-005,2.84719e-005 0.000114652,3.38224e-005l1.22296e-005 -5.35043e-006c-4.93004e-005,-0.000113123 -8.1403e-005,-0.00029179 -2.1975e-005,-0.000445232 1.71978e-005,-4.43322e-005 4.10837e-005,-8.69445e-005 7.28041e-005,-0.000125735 2.80898e-005,-3.43956e-005 6.11478e-005,-6.55428e-005 9.97474e-005,-9.17217e-005 1.70067e-005,-1.20385e-005 3.55422e-005,-2.27393e-005 5.54152e-005,-3.15293e-005l0.00194507 -0.000875942 3.82174e-007 7.64348e-007 1.79622e-005 -8.40782e-006c6.11478e-006,-3.43956e-006 1.26117e-005,-6.68804e-006 1.91087e-005,-9.55434e-006 0.000101658,-4.81539e-005 0.000274974,-0.000126691 0.00049052,-0.000135481 1.18474e-005,-1.33761e-006 2.38859e-005,-1.91087e-006 3.61154e-005,-1.91087e-006l3.43956e-006 0 0.00312121 0 1.33761e-006 0 0 1.33761e-006 1.33761e-006 0c0.000164526,7.64348e-007 0.000313956,6.8218e-005 0.000422111,0.000176564 0.000107773,0.000108155 0.000175036,0.000258541 0.000175418,0.000424404l1.33761e-006 0 0 5.73261e-007 0 1.33761e-006 -1.33761e-006 0 0 1.33761e-006c-7.64348e-007,0.000164908 -6.78358e-005,0.000314147 -0.000175036,0.000421347l-5.73261e-007 -5.73261e-007c-3.68798e-005,3.68798e-005 -7.87278e-005,6.86002e-005 -0.000124206,9.49702e-005l0.000162615 0 1.5287e-006 0 0 1.14652e-006 1.14652e-006 0c0.000165099,7.64348e-007 0.000314147,6.8218e-005 0.000421538,0.000175418 0.000107009,0.000106818 0.00017408,0.000254146 0.000176373,0.000415805l3.82174e-007 7.83456e-006 1.14652e-006 0 0 5.73261e-007 0 1.5287e-006 -1.14652e-006 0 0 1.14652e-006c-7.64348e-007,0.00016529 -6.76448e-005,0.00031472 -0.000175036,0.000422111 -0.000107773,0.000107773 -0.000258158,0.000175036 -0.000425168,0.000175418l0 1.33761e-006 -7.64348e-007 0 -0.000285866 0c4.45232e-005,2.61789e-005 8.56069e-005,5.80904e-005 0.000121722,9.43969e-005 0.000107391,0.000108155 0.000174844,0.000258732 0.000175227,0.000424786l1.33761e-006 0 0 5.73261e-007 0 1.5287e-006 -1.33761e-006 0 0 1.14652e-006c-7.64348e-007,0.00016357 -6.76448e-005,0.000312427 -0.000174844,0.0004202 -0.000107773,0.000108537 -0.000257967,0.000176564 -0.000423066,0.000176946l0 1.14652e-006 -7.64348e-007 0 -0.000285484 0 -1.33761e-006 0 0 -1.14652e-006 -1.33761e-006 0c-0.000152487,-7.64348e-007 -0.00029179,-5.88548e-005 -0.000396887,-0.000152678 -8.79e-006,-7.07021e-006 -1.70067e-005,-1.45226e-005 -2.50324e-005,-2.25483e-005l-3.82174e-006 -3.82174e-006 -3.24848e-006 3.24848e-006 -5.73261e-007 -5.73261e-007c-7.4715e-005,7.45239e-005 -0.000169685,0.000129748 -0.000275738,0.000157073 5.9428e-005,2.92363e-005 0.000113506,6.78358e-005 0.000159558,0.000113888l-7.64348e-007 7.64348e-007 7.64348e-007 5.73261e-007c0.000107391,0.000107582 0.000174844,0.000257585 0.000175227,0.000422875l1.33761e-006 0 0 5.73261e-007 0 1.33761e-006 -1.33761e-006 0 0 1.33761e-006c-7.64348e-007,0.000164335 -6.78358e-005,0.000313191 -0.000174844,0.000420582 -0.000108155,0.000108728 -0.000258158,0.000176373 -0.000423257,0.000176755l0 1.33761e-006 -5.73261e-007 0 0 -1.33761e-006 -0.00287949 0 0 1.33761e-006c-0.000115799,0 -0.000225291,-3.43956e-005 -0.000317777,-9.24861e-005l-0.00018459 9.91741e-005c3.78352e-005,0.000148475 3.21026e-005,0.000346441 -0.000130703,0.000558165 -8.40782e-006,1.0892e-005 -1.758e-005,2.10196e-005 -2.71343e-005,3.05739e-005l7.64348e-007 7.64348e-007 -1.24206e-005 1.01276e-005c-1.87265e-005,1.70067e-005 -3.91728e-005,3.15293e-005 -6.07656e-005,4.33767e-005 -6.97467e-005,4.45232e-005 -0.000185545,0.000101467 -0.000327141,0.000109111 -8.59891e-006,0.000110257 -5.08291e-005,0.000228922 -0.000153252,0.000343574l-1.24206e-005 1.28028e-005 1.14652e-006 1.14652e-006c-7.64348e-007,7.64348e-007 -0.000191469,0.000214399 -0.000491667,0.000214973 -1.5478e-005,8.27406e-005 -5.23578e-005,0.000171596 -0.000123442,0.00026198 -1.91087e-005,2.4268e-005 -4.12748e-005,4.49054e-005 -6.51606e-005,6.19121e-005 -8.54158e-005,7.12754e-005 -0.000258349,0.000180959 -0.000480775,0.000146181 -3.15293e-005,6.91735e-005 -8.29317e-005,0.000140067 -0.000164144,0.000206565 -2.59878e-005,2.14017e-005 -5.46508e-005,3.78352e-005 -8.42693e-005,4.96826e-005l1.91087e-007 5.73261e-007c-1.14652e-006,5.73261e-007 -0.000395359,0.000180577 -0.000970339,-0.000106053 -1.29939e-005,1.60513e-005 -2.637e-005,3.13382e-005 -4.03193e-005,4.50965e-005 -2.94274e-005,2.90452e-005 -6.30587e-005,5.54152e-005 -9.99384e-005,7.81545e-005l3.82174e-007 7.64348e-007c-0.000180959,0.000112359 -0.000419054,0.000119238 -0.000612051,1.71978e-006 -6.68804e-006,-4.20391e-006 -1.35672e-005,-8.79e-006 -1.9873e-005,-1.33761e-005 -3.28669e-005,-2.21661e-005 -6.22943e-005,-4.70074e-005 -8.88554e-005,-7.39506e-005l-1.14652e-006 -1.33761e-006 0 1.91087e-007 -1.33761e-006 -1.5287e-006 -3.82174e-007 -5.73261e-007c-9.36326e-006,-9.74543e-006 -1.87265e-005,-1.9873e-005 -2.75165e-005,-3.03828e-005z"/>
     <g>
      <path id="_82143128" class="fil3" d="M0.0829235 0.00756093c0.000106435,6.28676e-005 7.49061e-005,0.000214782 3.63065e-005,0.000285866 -3.15293e-005,5.78993e-005 -8.15941e-005,0.0001758 -0.000132805,0.000279751l0.000394212 0.000169494c0,0 0.000209622,-1.28028e-005 0.000333256,-8.88554e-005 0,0 0.000780781,-0.000396696 0.000986964,-0.000466634 0,0 -0.000453831,0.000437971 -0.000558547,0.000758615 -0.000352746,0.00104161 0.000790335,0.000585872 0.00126003,0.000155354l0.000385613 0c0,0 0.000299051,0.000874987 0.00132481,0.00102805l0.00115053 0.0010655c0,0 0.000171787,0.000192424 -4.58609e-006,0.000423066 0,0 -0.000166437,0.000149621 -0.000377014,1.22296e-005l-0.00044313 -0.000409499c0,0 -8.08298e-005,-6.3823e-005 -0.000156691,-9.93652e-006 0,0 -5.38865e-005,7.37595e-005 0,0.00013013l0.000403958 0.000387524c0,0 0.000178093,0.000220132 8.59891e-006,0.000408735 0,0 -0.00018459,0.00020752 -0.000444277,7.54793e-005l-0.000440646 -0.000403767c0,0 -6.40141e-005,-6.42052e-005 -0.000139302,-7.45239e-006 0,0 -4.89182e-005,7.911e-005 -3.82174e-006,0.000120576l0.000380454 0.000377397c0,0 0.000139302,0.000173507 7.45239e-006,0.000343192 0,0 -0.000154398,0.000177329 -0.000376632,3.78352e-005l-0.000474278 -0.000415041c0,0 -8.52247e-005,-9.36326e-005 -0.000150768,-2.637e-005 0,0 -6.89824e-005,6.57339e-005 2.637e-005,0.000150768l0.000389435 0.000373193c0,0 6.61161e-005,0.000129557 -7.56704e-005,0.000246311 0,0 -0.000299242,0.000138729 -0.000784221,-0.000135863 7.28041e-005,-2.40769e-005 0.000169494,-0.000781928 -0.00049759,-0.000697276 0,0 -0.000147137,-0.000504087 -0.000662498,-0.00039383 0,0 -0.000129748,-0.000539056 -0.000652944,-0.000428799 -0.000101658,-0.000406251 -0.000612051,-0.00063995 -0.000906134,-0.000169112l-0.0007911 -0.000425933c-4.31856e-005,9.8983e-005 -0.000142169,0.00016873 -0.000256821,0.00016873l-0.00287777 0c-0.000154016,0 -0.000279942,-0.000126117 -0.000279942,-0.000280133l0 0c0,-0.000154016 0.000125926,-0.000279942 0.000279942,-0.000279942l0.000272299 0 0.000627529 0c0.000154016,0 0.000280133,-0.000125926 0.000280133,-0.000279942l0 0c0,-0.000154016 -0.000126117,-0.000280133 -0.000280133,-0.000280133l-0.000758615 0 -0.000257203 0c-0.000154016,0 -0.000279942,-0.000125926 -0.000279942,-0.000279942l0 0c0,-0.000154016 0.000125926,-0.000280133 0.000279942,-0.000280133l0.000126117 0 0.000381218 0c0.000154016,0 0.000280133,-0.000125926 0.000280133,-0.000279942l0 0c0,-0.000154016 -0.000126117,-0.000279942 -0.000280133,-0.000279942l-0.000512495 0 -0.000423066 0c-0.000154016,0 -0.000279942,-0.000126117 -0.000279942,-0.000280133l0 0c0,-0.000154016 0.000125926,-0.000279942 0.000279942,-0.000279942l0.000291981 0 0.000153061 0c0.000154016,0 0.000279942,-0.000126117 0.000279942,-0.000280133l0 0c0,-0.000154016 -0.000125926,-0.000279942 -0.000279942,-0.000279942l-0.000284146 0 -0.000999384 0c-0.000154016,0 -0.000279942,-0.000125926 -0.000279942,-0.000279942l0 0c0,-0.000154016 0.000125926,-0.000280133 0.000279942,-0.000280133l0.00312007 0c0.000195291,0 0.00036746,9.36326e-005 0.000437016,0.000124971l0.00194488 0.000875942zm-0.00596573 0.000119238l0.000391346 0c0.000154016,0 0.000279942,0.000125926 0.000279942,0.000279942l0 0c0,0.000154016 -0.000125926,0.000280133 -0.000279942,0.000280133l-0.000391346 0c-0.000154016,0 -0.000280133,-0.000126117 -0.000280133,-0.000280133l0 0c0,-0.000154016 0.000126117,-0.000279942 0.000280133,-0.000279942zm0.000588739 0.00111996l0.000284337 0c0.000154016,0 0.000279942,0.000126117 0.000279942,0.000280133l0 0c0,0.000154016 -0.000125926,0.000279942 -0.000279942,0.000279942l-0.000284337 0c-0.000154016,0 -0.000280133,-0.000125926 -0.000280133,-0.000279942l0 0c0,-0.000154016 0.000126117,-0.000280133 0.000280133,-0.000280133z"/>
      <g>
       <path id="_82140840" class="fil4" d="M0.087745 0.00756093c-0.000106244,6.28676e-005 -7.49061e-005,0.000214782 -3.63065e-005,0.000285866 3.15293e-005,5.78993e-005 8.17852e-005,0.0001758 0.000132805,0.000279751l-0.000394212 0.000169494c0,0 -0.000209431,-1.28028e-005 -0.000333256,-8.88554e-005 0,0 -0.000439118,-0.000223189 -0.000745812,-0.000364212 -0.000199113,-9.15306e-005 -0.000337651,-0.000153443 -0.000442175,-0.000195482 -0.00027421,-0.000110257 -0.00050638,-0.000110639 -0.000788042,-3.26759e-005 -0.00026026,7.20398e-005 -0.000326567,0.000135863 -0.000466825,0.000260069 -0.000158411,0.000153252 -0.000442557,0.000473131 -0.000510775,0.00068218l-5.73261e-007 1.91087e-006c-1.94909e-005,5.7135e-005 -9.63078e-005,0.000316822 -3.24848e-005,0.000368607 4.08926e-005,3.34402e-005 0.000158793,1.70067e-005 0.000205036,7.83456e-006 0.000142169,-2.82809e-005 0.000291407,-9.40147e-005 0.000418289,-0.000163188 0.000128028,-6.97467e-005 0.000258541,-0.000156691 0.000366122,-0.000255292l5.35043e-005 -4.91093e-005 0.000591796 0 4.29945e-005 0.000125926c4.77717e-005,0.000136245 0.000159749,0.00030058 0.000252808,0.000407397 0.000242107,0.000278223 0.000558738,0.000442557 0.00092295,0.000496826l5.7135e-005 8.40782e-006 0.00117155 0.00108518 0.000520138 -0.000279942c4.31856e-005,9.8983e-005 0.00014236,0.00016873 0.000256821,0.00016873l0.00287777 0c0.000154016,0 0.000280133,-0.000126117 0.000280133,-0.000280133l0 0c0,-0.000154016 -0.000126117,-0.000279942 -0.000280133,-0.000279942l-0.000272299 0 -0.000627529 0c-0.000154016,0 -0.000280133,-0.000125926 -0.000280133,-0.000279942l0 0c0,-0.000154016 0.000126117,-0.000280133 0.000280133,-0.000280133l0.000758615 0 0.000257203 0c0.000154016,0 0.000280133,-0.000125926 0.000280133,-0.000279942l0 0c0,-0.000154016 -0.000126117,-0.000280133 -0.000280133,-0.000280133l-0.000126117 0 -0.000381218 0c-0.000154016,0 -0.000280133,-0.000125926 -0.000280133,-0.000279942l0 0c0,-0.000154016 0.000126117,-0.000279942 0.000280133,-0.000279942l0.000512495 0 0.000423066 0c0.000154016,0 0.000279942,-0.000126117 0.000279942,-0.000280133l0 0c0,-0.000154016 -0.000125926,-0.000279942 -0.000279942,-0.000279942l-0.000291981 0 -0.000153061 0c-0.000154016,0 -0.000279942,-0.000126117 -0.000279942,-0.000280133l0 0c0,-0.000154016 0.000125926,-0.000279942 0.000279942,-0.000279942l0.000284146 0 0.000999384 0c0.000154016,0 0.000280133,-0.000125926 0.000280133,-0.000279942l0 0c0,-0.000154016 -0.000126117,-0.000280133 -0.000280133,-0.000280133l-0.00312007 0c-0.000195291,0 -0.00036746,9.36326e-005 -0.000437016,0.000124971l-0.00194488 0.000875942zm0.00596592 0.000119238l-0.000391537 0c-0.000154016,0 -0.000279942,0.000125926 -0.000279942,0.000279942l0 0c0,0.000154016 0.000125926,0.000280133 0.000279942,0.000280133l0.000391537 0c0.000154016,0 0.000279942,-0.000126117 0.000279942,-0.000280133l0 0c0,-0.000154016 -0.000125926,-0.000279942 -0.000279942,-0.000279942zm-0.000588739 0.00111996l-0.000284528 0c-0.000154016,0 -0.000279942,0.000126117 -0.000279942,0.000280133l0 0c0,0.000154016 0.000125926,0.000279942 0.000279942,0.000279942l0.000284528 0c0.000153825,0 0.000279942,-0.000125926 0.000279942,-0.000279942l0 0c0,-0.000154016 -0.000125926,-0.000280133 -0.000279942,-0.000280133z"/>
       <g>
        <path id="_82139608" class="fil4" d="M0.0833017 0.0107318l0 0c0.0001372,8.56069e-005 0.000179239,0.000268095 9.34415e-005,0.000405104l-0.000278031 0.000445232c-8.5798e-005,0.0001372 -0.000268095,0.000179239 -0.000405295,9.34415e-005l0 0c-0.0001372,-8.56069e-005 -0.000179239,-0.000267904 -9.36326e-005,-0.000405104l0.000278223 -0.000445232c8.5798e-005,-0.0001372 0.000268095,-0.000179239 0.000405295,-9.34415e-005z"/>
        <path id="_82138512" class="fil4" d="M0.0839508 0.0111375l0 0c0.0001372,8.56069e-005 0.000179239,0.000268095 9.36326e-005,0.000405104l-0.000278223 0.000445232c-8.56069e-005,0.0001372 -0.000268095,0.000179239 -0.000405104,9.34415e-005l0 0c-0.0001372,-8.56069e-005 -0.000179431,-0.000267904 -9.36326e-005,-0.000405104l0.000278223 -0.000445232c8.56069e-005,-0.0001372 0.000267904,-0.000179239 0.000405104,-9.34415e-005z"/>
        <path id="_82137720" class="fil4" d="M0.08459 0.0115594l0 0c0.000137009,8.56069e-005 0.000179239,0.000268095 9.34415e-005,0.000405104l-0.000267904 0.00042899c-8.5798e-005,0.0001372 -0.000268095,0.000179239 -0.000405295,9.34415e-005l0 0c-0.0001372,-8.56069e-005 -0.000179239,-0.000267904 -9.36326e-005,-0.000405104l0.000268095 -0.00042899c8.56069e-005,-0.000137009 0.000268095,-0.000179239 0.000405295,-9.34415e-005z"/>
        <path id="_82136296" class="fil4" d="M0.0852049 0.011954l0 0c0.000120958,7.54793e-005 0.000158029,0.000236183 8.25495e-005,0.000357141l-0.000132041 0.000211342c-7.56704e-005,0.000120958 -0.000236374,0.000158029 -0.000357332,8.25495e-005l0 0c-0.000120767,-7.56704e-005 -0.000158029,-0.000236374 -8.23584e-005,-0.000357332l0.000132041 -0.000211342c7.54793e-005,-0.000120958 0.000236374,-0.000158029 0.000357141,-8.23584e-005z"/>
       </g>
      </g>
     </g>
    </g>
    <g>
     <polygon id="_82133144" class="fil5" points="0.00468373,0 0,0 0,0.00374377 0.00468373,0.00374377 0.00468373,0.0187349 0.00843553,0.0187349 0.00843553,0.00374377 0.0131193,0.00374377 0.0131193,0 0.00843553,0 "/>
     <path id="_82124392" class="fil5" d="M0.0158795 0.0124101l0.00147538 -0.00327982 0.00146353 0.00327982 -0.00293892 0zm-0.00168539 0.00373976l0.00632173 0 5.54152e-005 0.000126882 0.00119773 0.00268897 0.000638421 0 0.000162615 0 0.00241534 0 0.000793202 0 -0.008031 -0.0178506 -0.000404531 -0.00088435 -0.000396505 0.000872503 -0.00801915 0.0178624 0.000793202 0 0.00241515 0 0.000150768 0 0.000638612 0 0.00120958 -0.00267713 5.9428e-005 -0.000138729z"/>
     <polygon id="_82123368" class="fil5" points="0.025923,0 0.025923,0.0187349 0.0371586,0.0187349 0.0371586,0.0149791 0.0296748,0.0149791 0.0296748,0 "/>
     <polygon id="_82128384" class="fil5" points="0.0376711,0 0.0376711,0.00749538 0.0376711,0.0112353 0.0376711,0.0187349 0.0414229,0.0187349 0.0489066,0.0187349 0.0489066,0.0149791 0.0414229,0.0149791 0.0414229,0.0112353 0.0470347,0.0112353 0.0470347,0.00749538 0.0414229,0.00749538 0.0414229,0.00374377 0.0489066,0.00374377 0.0489066,0 "/>
     <polygon id="_82132960" class="fil5" points="0.0494195,0 0.0494195,0.0187349 0.0531713,0.0187349 0.0531713,0.00848311 0.0644066,0.0187349 0.0644066,0 0.0606548,0 0.0606548,0.010236 "/>
     <polygon id="_82132584" class="fil5" points="0.0695033,0 0.0648195,0 0.0648195,0.00374377 0.0695033,0.00374377 0.0695033,0.0187349 0.0732551,0.0187349 0.0732551,0.00374377 0.0779388,0.00374377 0.0779388,0 0.0732551,0 "/>
    </g>
   </g>
   <path id="_82118600" class="fil6" d="M0.0508016 0.0277859l0 -0.0051261 -0.00131544 0 0 -0.001012 0.00377511 0 0 0.001012 -0.00131544 0 0 0.0051261 -0.00114423 0zm0.00380664 -0.00246368l0.000972632 0 -0.000489756 -0.00257394 -0.000482877 0.00257394zm-0.0016422 0.00246368l0.00138366 -0.00613809 0.00153443 0 0.00139455 0.00613809 -0.00123117 0 -0.000303446 -0.00154264 -0.00131544 0 -0.000295229 0.00154264 -0.00116735 0zm0.00491399 0l0 -0.00613809 0.00114404 0 0 0.00509342 0.00206393 0 0 0.00104467 -0.00320797 0zm0.00398206 0l0 -0.00613809 0.00315351 0 0 0.00102021 -0.00201769 0 0 0.00141901 0.00187743 0 0 0.000972632 -0.00187743 0 0 0.00168959 0.00206527 0 0 0.00103665 -0.00320109 0zm0.00404168 0l0 -0.00613809 0.00117557 0 0.00159844 0.004292 -3.13382e-005 -0.004292 0.00108021 0 0 0.00613809 -0.00116716 0 -0.00161086 -0.00430022 3.13382e-005 0.00430022 -0.0010762 0zm0.00573968 0l0 -0.0051261 -0.00131544 0 0 -0.001012 0.00377511 0 0 0.001012 -0.00131544 0 0 0.0051261 -0.00114423 0zm0.00614516 -0.00306905c0,0.00100932 5.84726e-005,0.00164468 0.000176946,0.0019059 0.000118283,0.000262553 0.000335931,0.000393257 0.000654281,0.000393257 0.000312809,0 0.000527782,-0.000128028 0.000643581,-0.00038504 0.000115608,-0.000255674 0.000172743,-0.000893713 0.000172743,-0.00191412 0,-0.0010204 -5.84726e-005,-0.00166112 -0.000175609,-0.001921 -0.000116945,-0.000259878 -0.000331918,-0.000390391 -0.000647402,-0.000390391 -0.000317013,0 -0.000531986,0.000130512 -0.000649122,0.000390391 -0.000116945,0.000259878 -0.000175418,0.000900592 -0.000175418,0.001921zm-0.00116716 0c0,-0.000650269 2.98096e-005,-0.00117136 9.09574e-005,-0.00156042 6.13389e-005,-0.000389244 0.0001565,-0.000681607 0.000287204,-0.000878809 0.000178093,-0.000278987 0.000390391,-0.000477526 0.000636701,-0.000597338 0.000247458,-0.00011962 0.000572687,-0.000179431 0.000976836,-0.000179431 0.00040262,0 0.000727659,5.98102e-005 0.000975307,0.000179431 0.000246311,0.000119811 0.000459946,0.000318351 0.000640714,0.000597338 0.000129366,0.000202552 0.000224527,0.000496635 0.000284528,0.000885688 5.98102e-005,0.000387715 8.96197e-005,0.000904605 8.96197e-005,0.00155354 0,0.000646065 -2.98096e-005,0.00116315 -9.09574e-005,0.0015522 -6.13389e-005,0.000389053 -0.000155163,0.000684282 -0.000283191,0.000887025 -0.000180768,0.000278987 -0.000394403,0.000477526 -0.000640714,0.000597147 -0.000247649,0.000119811 -0.000572687,0.000179622 -0.000975307,0.000179622 -0.000404149,0 -0.000729379,-5.98102e-005 -0.000976836,-0.000179622 -0.000246311,-0.00011962 -0.000458609,-0.00031816 -0.000636701,-0.000597147 -0.000130703,-0.000197393 -0.000225865,-0.000489756 -0.000287204,-0.000878809 -6.11478e-005,-0.000389053 -9.09574e-005,-0.000910147 -9.09574e-005,-0.00156042zm0.0049138 0.00306905l0 -0.00613809 0.00117557 0 0.00159844 0.004292 -3.13382e-005 -0.004292 0.00108041 0 0 0.00613809 -0.00116735 0 -0.00161086 -0.00430022 3.13382e-005 0.00430022 -0.0010762 0zm0.00471125 -0.00182966l0 -0.000952377 0.00194565 0 0 0.000952377 -0.00194565 0zm0.00395359 0.000925052l0.000505998 0c0.000258541,0 0.000437971,-1.91087e-005 0.000542878,-5.57974e-005 0.000103378,-3.66887e-005 0.000184972,-0.000100703 0.000246311,-0.000191851 0.000106053,-0.000159175 0.000182297,-0.000378161 0.000227202,-0.000655619 4.49054e-005,-0.000277649 6.78358e-005,-0.0007225 6.78358e-005,-0.0013334 0,-0.000594471 -2.71343e-005,-0.00102843 -8.02565e-005,-0.00129901 -5.29311e-005,-0.00027077 -0.000142742,-0.000476189 -0.00027077,-0.000613771 -6.64982e-005,-6.91735e-005 -0.000152296,-0.000118283 -0.000257012,-0.000145417 -0.000104716,-2.8663e-005 -0.000269433,-4.22302e-005 -0.000492431,-4.22302e-005l-0.000489756 0 0 0.0043371zm-0.00111977 0.000904605l0 -0.00613809 0.00183673 0c0.000375486,0 0.00067339,3.11472e-005 0.000895051,9.51613e-005 0.000221852,6.3823e-005 0.000405486,0.000167201 0.000548419,0.000311472 0.00021631,0.000209622 0.000367269,0.000474851 0.00045708,0.000794539 8.84732e-005,0.000321026 0.000133379,0.000817661 0.000133379,0.00149373 0,0.000870783 -3.00006e-005,0.00148704 -9.13395e-005,0.00184743 -6.11478e-005,0.000359243 -0.000165863,0.000665365 -0.000311472,0.000918364 -0.000141404,0.000251661 -0.000337459,0.000428608 -0.000587783,0.000527782 -0.000251661,9.93652e-005 -0.000686957,0.000149621 -0.00130589,0.000149621l-0.00157417 0zm0.00479838 0l0 -0.00613809 0.00315351 0 0 0.00102021 -0.0020175 0 0 0.00141901 0.00187743 0 0 0.000972632 -0.00187743 0 0 0.00168959 0.00206508 0 0 0.00103665 -0.00320109 0zm0.00404187 0l0 -0.00613809 0.00172227 0 0.000840782 0.00397365 0.000840782 -0.00397365 0.00172227 0 0 0.00613809 -0.00109244 0 2.44591e-005 -0.00544445 -0.00114404 0.00544445 -0.000702053 0 -0.00114404 -0.00544445 2.84719e-005 0.00544445 -0.00109646 0zm0.00736124 -0.00246368l0.000972823 0 -0.000489947 -0.00257394 -0.000482877 0.00257394zm-0.00164201 0.00246368l0.00138347 -0.00613809 0.00153462 0 0.00139455 0.00613809 -0.00123136 0 -0.000303255 -0.00154264 -0.00131563 0 -0.000295229 0.00154264 -0.00116716 0zm0.0049138 0l0 -0.00613809 0.00117557 0 0.00159844 0.004292 -3.13382e-005 -0.004292 0.00108021 0 0 0.00613809 -0.00116716 0 -0.00161086 -0.00430022 3.13382e-005 0.00430022 -0.0010762 0zm0.00598599 -0.000904605l0.000505998 0c0.000258541,0 0.000438162,-1.91087e-005 0.000542878,-5.57974e-005 0.000103378,-3.66887e-005 0.000184972,-0.000100703 0.000246311,-0.000191851 0.000106053,-0.000159175 0.000182297,-0.000378161 0.000227202,-0.000655619 4.49054e-005,-0.000277649 6.78358e-005,-0.0007225 6.78358e-005,-0.0013334 0,-0.000594471 -2.71343e-005,-0.00102843 -8.02565e-005,-0.00129901 -5.29311e-005,-0.00027077 -0.000142742,-0.000476189 -0.000270579,-0.000613771 -6.66893e-005,-6.91735e-005 -0.000152487,-0.000118283 -0.000257203,-0.000145417 -0.000104716,-2.8663e-005 -0.000269241,-4.22302e-005 -0.000492431,-4.22302e-005l-0.000489756 0 0 0.0043371zm-0.00111958 0.000904605l0 -0.00613809 0.00183654 0c0.000375486,0 0.00067339,3.11472e-005 0.000895051,9.51613e-005 0.000221852,6.3823e-005 0.000405486,0.000167201 0.000548419,0.000311472 0.00021631,0.000209622 0.000367269,0.000474851 0.00045708,0.000794539 8.84732e-005,0.000321026 0.000133379,0.000817661 0.000133379,0.00149373 0,0.000870783 -3.00006e-005,0.00148704 -9.13395e-005,0.00184743 -6.11478e-005,0.000359243 -0.000165863,0.000665365 -0.000311472,0.000918364 -0.000141404,0.000251661 -0.000337459,0.000428608 -0.000587783,0.000527782 -0.00025147,9.93652e-005 -0.000686957,0.000149621 -0.00130589,0.000149621l-0.00157398 0z"/>
  </g>
 </g>
</svg>
