<?xml version="1.0" encoding="UTF-8"?>
<!DOCTYPE svg PUBLIC "-//W3C//DTD SVG 1.1//EN" "http://www.w3.org/Graphics/SVG/1.1/DTD/svg11.dtd">
<!-- Creator: CorelDRAW -->
<svg xmlns="http://www.w3.org/2000/svg" xml:space="preserve" width="0.85272in" height="0.76424in" style="shape-rendering:geometricPrecision; text-rendering:geometricPrecision; image-rendering:optimizeQuality; fill-rule:evenodd; clip-rule:evenodd"
viewBox="0 0 0.141005 0.126374"
 xmlns:xlink="http://www.w3.org/1999/xlink">
 <defs>
  <style type="text/css">
   <![CDATA[
    .fil0 {fill:#667AB3}
   ]]>
  </style>
 </defs>
 <g id="Ã_x008d_Â_x00bc_Â_x00b2_Ã_x00a3__1">
  <metadata id="CorelCorpID_0Corel-Layer"/>
  <g id="_81342152">
   <path id="_81356264" class="fil0" d="M0.0705021 0.00414048c-0.00569707,0 -0.0103297,0.00464177 -0.0103297,0.0103401 1.30204e-006,0.00570879 0.0046307,0.0103506 0.0103291,0.0103506 0.00569837,0 0.0103401,-0.00464177 0.0103401,-0.0103506 1.30204e-006,-0.00569837 -0.00464242,-0.0103401 -0.0103395,-0.0103401zm0 0.0248305c-0.00798019,0 -0.0144806,-0.00649847 -0.0144806,-0.0144904 1.30204e-006,-0.00798215 0.00649847,-0.0144806 0.01448,-0.0144806 0.00799321,0 0.01448,0.00649847 0.01448,0.0144806 6.51019e-007,0.00799191 -0.00648741,0.014491 -0.0144793,0.0144904z"/>
   <polygon id="_81355288" class="fil0" points="0.118477,0.0498752 0.114326,0.0498752 0.114326,0.0373691 0.118477,0.0373691 "/>
   <polygon id="_81354280" class="fil0" points="0.0863915,0.0807563 0.0546251,0.0807563 0.0546251,0.0766158 0.0863915,0.0766158 "/>
   <polygon id="_81353304" class="fil0" points="0.0266885,0.0498752 0.022537,0.0498752 0.022537,0.0373691 0.0266885,0.0373691 "/>
   <polygon id="_81352328" class="fil0" points="0.0725717,0.126374 0.0684325,0.126374 0.0684325,0.0881193 0.0725717,0.0881193 "/>
   <path id="_81351536" class="fil0" d="M0.0884611 0.126374l-0.00413918 0 0 -0.0785793 0.0408899 0c0.00229289,0 0.00416001,-0.00186712 0.00416001,-0.00417238 6.51019e-007,-0.00230526 -0.00186777,-0.00417238 -0.00416197,-0.00417238l-0.0440375 0 -0.0106578 0.0106604 -0.0106722 -0.0106604 -0.0440375 0c-0.00230461,0 -0.00417368,0.00186712 -0.00417368,0.00417238 1.30204e-006,0.00230461 0.00186712,0.00417238 0.00417238,0.00417238l0.0408912 0 0 0.0785793 -0.00414113 0 0 -0.0744291 -0.0367487 0c-0.00458773,0 -0.00831351,-0.00373425 -0.00831351,-0.00832263 1.95306e-006,-0.00458838 0.00372383,-0.00832328 0.00831221,-0.00832328l0.0457582 0 0.00894045 0.00895281 0.00895347 -0.00895281 0.0457562 0c0.00457601,0 0.00831091,0.0037349 0.00831091,0.00832328 1.30204e-006,0.00458838 -0.0037349,0.00832328 -0.00831286,0.00832328l-0.0367487 -6.51019e-007 0 0.0744291z"/>
   <polygon id="_81350560" class="fil0" points="0.0725841,0.0582304 0.0684325,0.0582304 0.0684325,0.0536316 0.0725841,0.0536316 "/>
   <polygon id="_81349416" class="fil0" points="0.0725841,0.0674391 0.0684325,0.0674391 0.0684325,0.0628299 0.0725841,0.0628299 "/>
   <polygon id="_81348424" class="fil0" points="0.130919,0.0806925 0.123889,0.0625844 0.116857,0.0806925 0.112993,0.0791984 0.123889,0.0511239 0.134782,0.0791984 "/>
   <path id="_81347632" class="fil0" d="M0.111073 0.0807563c0.000991502,0.00617817 0.0063585,0.0109059 0.012814,0.0109059 0.00645616,0 0.0118121,-0.0047277 0.012816,-0.0109059l-0.02563 0zm0.012816 0.0150568c-0.00944499,0 -0.0171283,-0.00768333 -0.0171283,-0.017127l0 -0.00207024 0.0342443 0 0 0.00207024c0,0.00944368 -0.00767421,0.017127 -0.0171159,0.017127z"/>
   <polygon id="_81346640" class="fil0" points="0.0100954,0.0806925 0.00623221,0.0791984 0.0171277,0.0511239 0.0280231,0.0791984 0.02416,0.0806925 0.0171277,0.0625844 "/>
   <path id="_81345104" class="fil0" d="M0.0043117 0.0807563c0.000991502,0.00617817 0.00635915,0.0109059 0.0128153,0.0109059 0.00645681,0 0.0118121,-0.0047277 0.0128153,-0.0109059l-0.0256306 0zm0.012816 0.0150568c-0.00944238,0 -0.0171277,-0.00768333 -0.0171277,-0.017127l2.60408e-006 -0.00207024 0.034241 0 0 0.00207024c0,0.00944368 -0.00767356,0.017127 -0.0171159,0.017127z"/>
  </g>
 </g>
</svg>
