<?xml version="1.0" encoding="UTF-8"?>
<!DOCTYPE svg PUBLIC "-//W3C//DTD SVG 1.1//EN" "http://www.w3.org/Graphics/SVG/1.1/DTD/svg11.dtd">
<!-- Creator: CorelDRAW -->
<svg xmlns="http://www.w3.org/2000/svg" xml:space="preserve" width="0.886335in" height="0.886236in" style="shape-rendering:geometricPrecision; text-rendering:geometricPrecision; image-rendering:optimizeQuality; fill-rule:evenodd; clip-rule:evenodd"
viewBox="0 0 0.0169337 0.0169318"
 xmlns:xlink="http://www.w3.org/1999/xlink">
 <defs>
  <style type="text/css">
   <![CDATA[
    .fil0 {fill:#5F7D22}
   ]]>
  </style>
 </defs>
 <g id="Ã_x008d_Â_x00bc_Â_x00b2_Ã_x00a3__1">
  <metadata id="CorelCorpID_0Corel-Layer"/>
  <g id="_82221416">
   <path id="_82232344" class="fil0" d="M0.00698057 0.00252837c-0.00118949,0 -0.00230647,0.000463265 -0.00314771,0.00130292 -0.00173587,0.00173595 -0.00173602,0.0045606 0,0.00629662 0.000841309,0.000839655 0.00195814,0.00130284 0.00314756,0.00130284 0.00118934,0 0.00230625,-0.00046319 0.00314748,-0.00130284 0.00173632,-0.0017361 0.00173602,-0.0045606 0,-0.00629662 -0.000841234,-0.00083973 -0.00195814,-0.00130284 -0.00314733,-0.00130292zm0 0.00951511c-0.00135324,0 -0.00262464,-0.000527652 -0.00358096,-0.00148389 -0.00197356,-0.00197401 -0.00197386,-0.00518603 0,-0.00715997 0.000956317,-0.000956317 0.00222757,-0.00148397 0.00358081,-0.00148397 0.00135354,-7.52176e-008 0.00262442,0.000527727 0.00358074,0.00148397 0.00197409,0.00197386 0.00197394,0.00518603 0,0.00715997 -0.000956167,0.000956242 -0.00222757,0.00148397 -0.00358059,0.00148389z"/>
   <polygon id="_82224656" class="fil0" points="0.0113773,0.0118087 0.0101281,0.0105596 0.0105613,0.0101278 0.0118104,0.0113771 "/>
   <path id="_82223752" class="fil0" d="M0.0112529 0.0123665l0.00370041 0.00370041 0.00111555 -0.00111375 -0.00370056 -0.00370214 -0.0011154 0.00111548zm0.00370041 0.00456533l-0.00456533 -0.00456533 0.00198033 -0.00198025 0.00456533 0.00456691 -0.00198033 0.00197868z"/>
   <polygon id="_82227168" class="fil0" points="0.0118058,0.0133526 0.0113726,0.0129195 0.0129213,0.0113725 0.013353,0.0118041 "/>
   <polygon id="_82226424" class="fil0" points="0.0144003,0.0159471 0.0139687,0.015514 0.0155158,0.013967 0.0159476,0.0144003 "/>
   <path id="_82231120" class="fil0" d="M0.00698057 0.00456225c-0.000680494,0 -0.0012353,0.000554504 -0.0012353,0.001235 7.52176e-008,0.000680494 0.00055458,0.00123507 0.00123515,0.00123507 0.00068072,0 0.00123507,-0.000554504 0.00123507,-0.00123507 0,-0.000680569 -0.00055458,-0.001235 -0.00123492,-0.001235zm0 0.00308129c-0.00101754,0 -0.00184644,-0.000828598 -0.00184644,-0.00184629 1.50435e-007,-0.00101769 0.000828598,-0.00184629 0.00184629,-0.00184629 0.00101785,0 0.00184629,0.000828673 0.00184629,0.00184629 2.25653e-007,0.00101769 -0.000828598,0.00184637 -0.00184614,0.00184629z"/>
   <path id="_82229896" class="fil0" d="M0.00902371 0.00985065c-0.000412569,-0.000745106 -0.00119573,-0.0012083 -0.00204329,-0.0012083 -0.000847252,-7.52176e-008 -0.00163049,0.00046319 -0.00204329,0.0012083l-0.000533744 -0.000296282c0.000519603,-0.000940446 0.00150736,-0.00152323 0.00257703,-0.00152323 0.00106997,-7.52176e-008 0.00205735,0.000582862 0.00257884,0.00152338l-0.00053555 0.000296132z"/>
   <path id="_82221568" class="fil0" d="M0.00637236 0.000639576l-5.67141e-005 -0.000608059c0.000211286,-2.04592e-005 0.00042844,-3.15162e-005 0.000642735,-3.15162e-005l1.65479e-006 0.000611219c-0.000195265,0 -0.00039399,9.47742e-006 -0.000587675,2.83571e-005zm0.00175806 7.55937e-005c-0.000192106,-3.62549e-005 -0.000387521,-6.13776e-005 -0.000582937,-7.87529e-005l5.37806e-005 -0.000609714c0.000214069,1.89548e-005 0.000428289,4.73119e-005 0.00063935,8.67259e-005l-0.000110194 0.000601741zm-0.00291107 0.000143365l-0.000168713 -0.00058918c0.000204818,-5.82937e-005 0.000415803,-0.000108614 0.000626939,-0.000148028l0.000113503 0.000600162c-0.000192106,3.62549e-005 -0.000384437,8.19872e-005 -0.000571729,0.000137047zm0.0040422 0.000173301c-0.000182553,-6.93507e-005 -0.000370296,-0.000132308 -0.000557814,-0.000184283l0.000163974 -0.00058918c0.000206322,5.67141e-005 0.000412719,0.00012599 0.000612723,0.000201659l-0.000218883 0.000571805zm-0.00513533 0.000253634l-0.000275748 -0.000546607c0.000192106,-9.62034e-005 0.00039038,-0.000184358 0.000588879,-0.000263111l0.000223848 0.000570225c-0.000182553,7.09302e-005 -0.000362474,0.000151338 -0.000536979,0.000239493zm0.00618763 0.000266195c-0.000165103,-0.000102296 -0.000338705,-0.000198424 -0.000513586,-0.000283495l0.00027116 -0.000548261c0.000192106,9.45486e-005 0.000381053,0.000198499 0.000563756,0.000311928l-0.00032133 0.000519829zm-0.00718509 0.00035608l-0.000369996 -0.000486733c0.000170142,-0.000129224 0.000347882,-0.00025213 0.00053066,-0.000367062l0.000324639 0.000519829c-0.000166983,0.000103876 -0.000329378,0.000215875 -0.000485304,0.000333966zm0.00812584 0.000349762c-0.000144944,-0.000130803 -0.000298012,-0.000256793 -0.000454014,-0.00037338l0.000367213 -0.000489968c0.000171872,0.000129149 0.000338555,0.00026627 0.00049606,0.000409635l-0.000409259 0.000453713zm-0.00899212 0.000444235l-0.000452208 -0.000411215c0.000143515,-0.000159161 0.000296057,-0.000311852 0.000453562,-0.000456797l0.000414449 0.000450478c-0.00014502,0.000132308 -0.000283721,0.000272589 -0.000415803,0.000417533zm0.00978612 0.000420617c-0.000118393,-0.000154347 -0.000244457,-0.000305609 -0.00037684,-0.000450554l0.000450554 -0.000414299c0.000144944,0.00015901 0.000283571,0.000324489 0.000412794,0.000494631l-0.000486508 0.000370221zm-0.0104918 0.000518174l-0.00051998 -0.000321255c0.000111698,-0.000181275 0.000232949,-0.000360744 0.000362173,-0.000532466l0.000489968 0.000368566c-0.000118016,0.000155926 -0.000230016,0.000319825 -0.000332161,0.000485154zm0.0111157 0.000477406c-8.83055e-005,-0.000173226 -0.000186239,-0.000346528 -0.00028861,-0.000511931l0.000518626 -0.000324564c0.000113052,0.000181199 0.000218582,0.000370221 0.000314711,0.000562402l-0.000544726 0.000274093zm-0.0116374 0.000574964l-0.000569999 -0.000220538c7.55185e-005,-0.000198499 0.000163523,-0.000396924 0.000258072,-0.000589105l0.000548337 0.000270934c-8.65003e-005,0.000176385 -0.000167134,0.000357585 -0.000236409,0.000538709zm0.0120659 0.000518325c-5.5285e-005,-0.000187518 -0.000118468,-0.000374885 -0.000189473,-0.000556084l0.000569097 -0.000223697c7.86777e-005,0.000200079 0.000147727,0.000404897 0.000207601,0.000611219l-0.000587224 0.000168563zm-0.0123838 0.000611219l-0.000601892 -0.000110269c3.93388e-005,-0.000209481 8.80046e-005,-0.000420617 0.000146374,-0.000626939l0.000587675 0.000165328c-5.21258e-005,0.000189097 -9.77829e-005,0.000381278 -0.000132157,0.00057188zm0.0126025 0.000543523c-1.87292e-005,-0.00019534 -4.57323e-005,-0.000392185 -8.35668e-005,-0.000582862l0.000601816 -0.000113503c3.97149e-005,0.000209556 7.0855e-005,0.000423851 9.13894e-005,0.000636492l-0.000609639 5.98732e-005zm-0.0127067 0.000628519l-0.000612873 -6.31828e-006c0,-0.000217379 9.47742e-006,-0.000430019 2.84323e-005,-0.000636341l0.000609639 5.3555e-005c-1.69992e-005,0.000189022 -2.67775e-005,0.000382783 -2.67775e-005,0.000574964l1.57957e-006 1.41409e-005zm0.0133182 0.000628594l-0.00060821 -5.67141e-005c1.73753e-005,-0.000192181 2.6627e-005,-0.000390605 2.6627e-005,-0.000586021l3.00871e-007 -2.84323e-005 0.000611068 0 0 2.36936e-005c0,0.000218959 -9.55264e-006,0.000434833 -2.97862e-005,0.000647473zm-0.0138094 0.000652212c-3.93388e-005,-0.000209556 -7.11559e-005,-0.000423701 -9.01107e-005,-0.000637996l0.000608285 -5.67893e-005c1.88044e-005,0.00019534 4.55067e-005,0.000390756 8.17616e-005,0.000582937l-0.000599936 0.000111849zm0.0135748 0.000612798l-0.000589481 -0.000166983c5.34797e-005,-0.000187518 9.92121e-005,-0.000379623 0.000135392,-0.000571805l0.000600462 0.000111773c-3.93388e-005,0.000209556 -8.8456e-005,0.000420692 -0.000146374,0.000627014zm-0.0132222 0.000625435c-7.72485e-005,-0.000198499 -0.000146524,-0.000404821 -0.000204818,-0.000611219l0.000587675 -0.000166983c5.34797e-005,0.000187367 0.000116512,0.00037496 0.000187442,0.000556084l-0.0005703 0.000222118zm0.000576769 0.00115158c-0.000113428,-0.000182779 -0.000219259,-0.000371801 -0.000313658,-0.000562402l0.000546907 -0.000274093c8.64251e-005,0.000174806 0.000182403,0.000346528 0.000286354,0.000513586l-0.000519603 0.000322909zm0.000777976 0.00102552c-0.000143139,-0.000157506 -0.000281991,-0.000324489 -0.000412794,-0.000494631l0.000488689 -0.000370221c0.000118016,0.000155926 0.000243931,0.000307189 0.000376239,0.000452133l-0.000452133 0.000412719zm0.000953083 0.000866432c-0.000171496,-0.000129149 -0.000338705,-0.000267775 -0.000496211,-0.000412644l0.00041114 -0.000452208c0.00014502,0.000132308 0.000297787,0.000258373 0.000453713,0.00037496l-0.000368642 0.000489893zm0.00109494 0.000675831c-0.000192106,-9.45486e-005 -0.000381278,-0.000200079 -0.000564057,-0.000313432l0.00032306 -0.000519904c0.000165554,0.000102371 0.00033863,0.000198499 0.000513511,0.00028673l-0.000272514 0.000546607zm0.00120198 0.00046477c-0.000206322,-5.83689e-005 -0.000412794,-0.000127644 -0.000611294,-0.000204818l0.000220689 -0.0005703c0.000181124,7.0855e-005 0.000368491,0.000132383 0.000556009,0.000185938l-0.000165404 0.00058918zm0.00319006 0.000143365l-0.000111623 -0.000601816c0.000192106,-3.46753e-005 0.000384137,-8.03324e-005 0.000571654,-0.000133887l0.000166983 0.0005876c-0.000204517,5.82185e-005 -0.000415954,0.000108689 -0.000627014,0.000148104zm-0.00192324 8.97347e-005c-0.000214446,-1.88796e-005 -0.000430395,-4.88163e-005 -0.000639877,-8.65755e-005l0.000112074 -0.000601892c0.000190752,3.46753e-005 0.000385716,6.1528e-005 0.000581132,8.04077e-005l-5.33293e-005 0.000608059zm0.000642584 2.83571e-005l0 -0.000611219c0.00019534,0 0.00039211,-9.40221e-006 0.00058587,-2.67775e-005l5.67141e-005 0.000608059c-0.00021264,2.04592e-005 -0.000428515,2.99366e-005 -0.000642584,2.99366e-005z"/>
  </g>
 </g>
</svg>
