<?xml version="1.0" encoding="utf-8"?>
<!-- Generator: Adobe Illustrator 16.0.0, SVG Export Plug-In . SVG Version: 6.00 Build 0)  -->
<!DOCTYPE svg PUBLIC "-//W3C//DTD SVG 1.1//EN" "http://www.w3.org/Graphics/SVG/1.1/DTD/svg11.dtd">
<svg version="1.1" id="Layer_1" xmlns="http://www.w3.org/2000/svg" xmlns:xlink="http://www.w3.org/1999/xlink" x="0px" y="0px"
	 width="212px" height="285px" viewBox="0 0 212 285" enable-background="new 0 0 212 285" xml:space="preserve">
<g>
	
		<linearGradient id="SVGID_1_" gradientUnits="userSpaceOnUse" x1="-128.3433" y1="44.9946" x2="28.7366" y2="202.0745" gradientTransform="matrix(-1 0 0 1 57.3311 0)">
		<stop  offset="0.0146" style="stop-color:#0767B2"/>
		<stop  offset="0.2421" style="stop-color:#0D64AB"/>
		<stop  offset="0.4866" style="stop-color:#155B9E"/>
		<stop  offset="0.7391" style="stop-color:#1C4E8B"/>
		<stop  offset="0.9955" style="stop-color:#213C73"/>
		<stop  offset="1" style="stop-color:#213B73"/>
	</linearGradient>
	<path fill="url(#SVGID_1_)" d="M7.161,107.905c0,56.782,80.11,150.587,96.929,169.652c1.623,1.846,4.484,1.824,6.079-0.05
		c16.666-19.577,96.992-116.675,96.992-169.602c0-55.229-44.772-100.002-99.998-100.002C51.934,7.903,7.161,52.675,7.161,107.905z
		 M31.862,103.808c0-41.586,33.711-75.305,75.301-75.305c41.593,0,75.301,33.718,75.301,75.305
		c0,41.589-33.708,75.306-75.301,75.306C65.573,179.114,31.862,145.397,31.862,103.808z"/>
	<linearGradient id="SVGID_2_" gradientUnits="userSpaceOnUse" x1="77.9756" y1="140.6143" x2="135.9754" y2="69.6144">
		<stop  offset="0.043" style="stop-color:#6AB23F"/>
		<stop  offset="0.4516" style="stop-color:#7DC242"/>
		<stop  offset="0.7258" style="stop-color:#92C83E"/>
		<stop  offset="0.9785" style="stop-color:#A9CF38"/>
	</linearGradient>
	<circle fill="url(#SVGID_2_)" cx="107.163" cy="104.887" r="49.898"/>
</g>
</svg>
