<?xml version="1.0" encoding="utf-8"?>
<!-- Generator: Adobe Illustrator 16.0.0, SVG Export Plug-In . SVG Version: 6.00 Build 0)  -->
<!DOCTYPE svg PUBLIC "-//W3C//DTD SVG 1.1//EN" "http://www.w3.org/Graphics/SVG/1.1/DTD/svg11.dtd">
<svg version="1.1" id="Layer_1" xmlns="http://www.w3.org/2000/svg" xmlns:xlink="http://www.w3.org/1999/xlink" x="0px" y="0px"
	 width="231px" height="238px" viewBox="0 0 231 238" enable-background="new 0 0 231 238" xml:space="preserve">
<g id="XMLID_350_">
	<polygon id="XMLID_356_" fill="#F58220" points="38.003,185.076 47.929,195 47.954,194.984 38.028,185.06 	"/>
	
		<rect id="XMLID_355_" x="14.475" y="114.159" transform="matrix(-0.7071 0.7071 -0.7071 -0.7071 276.5967 127.7882)" fill="#F58220" width="194.716" height="14.039"/>
	<polygon id="XMLID_354_" fill="#F58220" points="158.95,30.611 21.256,168.295 30.245,177.277 167.93,39.59 	"/>
	<polygon id="XMLID_353_" fill="#F58220" points="55.728,202.767 65.386,212.427 203.065,74.739 193.422,65.083 	"/>
	<path id="XMLID_352_" fill="#F58220" d="M216.583,17.091c-12.179-12.195-31.937-12.195-44.115,0l-8.396,8.382L208.2,69.604
		l8.383-8.382C228.777,49.027,228.777,29.27,216.583,17.091z"/>
	<polygon id="XMLID_351_" fill="#F58220" points="38.003,185.076 30.229,177.307 21.311,168.389 5.217,228.466 65.292,212.362 
		55.713,202.783 47.929,195 	"/>
</g>
</svg>
