<?xml version="1.0" encoding="utf-8"?>
<!-- Generator: Adobe Illustrator 16.0.0, SVG Export Plug-In . SVG Version: 6.00 Build 0)  -->
<!DOCTYPE svg PUBLIC "-//W3C//DTD SVG 1.1//EN" "http://www.w3.org/Graphics/SVG/1.1/DTD/svg11.dtd">
<svg version="1.1" id="Layer_1" xmlns="http://www.w3.org/2000/svg" xmlns:xlink="http://www.w3.org/1999/xlink" x="0px" y="0px"
	 width="148px" height="150px" viewBox="0 0 148 150" enable-background="new 0 0 148 150" xml:space="preserve">
<path id="XMLID_135_" fill="#F58220" d="M118.075,92.229l21.362-3.729V64.078l-21.674-3.773c-0.009-0.018-0.009-0.031-0.018-0.044
	c-0.383-0.966-0.773-1.931-1.201-2.847l-0.009-0.01l12.644-17.98l-17.27-17.27L93.76,34.912c-0.01,0-0.01-0.004-0.018-0.009
	c-0.917-0.338-1.789-0.725-2.705-1.063l0,0L87.22,11.971H62.797L58.989,33.84l0,0c-0.917,0.339-1.833,0.677-2.749,1.108
	L38.143,22.225l-17.269,17.27l12.563,17.87l0,0c-0.437,1.015-0.872,2.024-1.255,3.039c0,0.013-0.009,0.022-0.009,0.035L10.687,64.18
	v24.428l21.255,3.701l0,0c0.383,1.156,0.863,2.304,1.344,3.398l-12.34,17.555l17.27,17.269l17.42-12.242
	c0.009,0,0.018,0,0.027,0.009c1.156,0.525,2.357,1.006,3.567,1.45c0,0,0.009,0,0.018,0l3.647,20.962h24.432l3.666-21.068
	c1.201-0.428,2.402-0.908,3.559-1.441l17.43,12.26l17.27-17.27l-12.429-17.678c0,0,0.009-0.01,0.009-0.019
	C117.266,94.443,117.693,93.332,118.075,92.229z M100.922,76.742c0,14.32-11.62,25.94-25.936,25.94
	c-14.262,0-25.882-11.62-25.882-25.94c0-14.315,11.62-25.931,25.882-25.931C89.302,50.812,100.922,62.427,100.922,76.742z"/>
</svg>
