<?xml version="1.0" encoding="utf-8"?>
<!-- Generator: Adobe Illustrator 16.0.0, SVG Export Plug-In . SVG Version: 6.00 Build 0)  -->
<!DOCTYPE svg PUBLIC "-//W3C//DTD SVG 1.1//EN" "http://www.w3.org/Graphics/SVG/1.1/DTD/svg11.dtd">
<svg version="1.1" id="Layer_1" xmlns="http://www.w3.org/2000/svg" xmlns:xlink="http://www.w3.org/1999/xlink" x="0px" y="0px"
	 width="210px" height="174px" viewBox="0 0 210 174" enable-background="new 0 0 210 174" xml:space="preserve">
<g>
	<path fill="#0767B2" d="M202.246,169.539H7.731c-1.515,0-2.743-1.228-2.743-2.738V22.714c0-1.52,1.228-2.748,2.743-2.748h194.515
		c1.52,0,2.737,1.228,2.737,2.748v144.086C204.983,168.312,203.766,169.539,202.246,169.539z M10.469,164.054h189.039V25.452H10.469
		V164.054z"/>
	<path fill="#73BF44" d="M98.481,154.064c-29.116,0-52.798-23.678-52.798-52.793s23.682-52.793,52.798-52.793
		c29.115,0,52.793,23.678,52.793,52.793S127.597,154.064,98.481,154.064z M98.481,53.954c-26.095,0-47.317,21.223-47.317,47.317
		s21.223,47.318,47.317,47.318c26.085,0,47.317-21.224,47.317-47.318S124.566,53.954,98.481,53.954z"/>
	<path fill="#0767B2" d="M60.529,11.546H20.344c-1.516,0-2.742-1.228-2.742-2.738c0-1.51,1.227-2.737,2.742-2.737h40.186
		c1.51,0,2.737,1.227,2.737,2.737C63.267,10.318,62.039,11.546,60.529,11.546z"/>
	<path fill="#73BF44" d="M188.15,57.551h-34.242c-1.52,0-2.747-1.227-2.747-2.737V37.688c0-1.511,1.228-2.738,2.747-2.738h34.242
		c1.52,0,2.738,1.227,2.738,2.738v17.126C190.889,56.324,189.67,57.551,188.15,57.551z M156.646,52.075h28.766V40.435h-28.766
		V52.075z"/>
</g>
</svg>
