<?xml version="1.0" encoding="UTF-8"?>
<!DOCTYPE svg PUBLIC "-//W3C//DTD SVG 1.1//EN" "http://www.w3.org/Graphics/SVG/1.1/DTD/svg11.dtd">
<!-- Creator: CorelDRAW -->
<svg xmlns="http://www.w3.org/2000/svg" xml:space="preserve" width="1.41317in" height="1.51893in" style="shape-rendering:geometricPrecision; text-rendering:geometricPrecision; image-rendering:optimizeQuality; fill-rule:evenodd; clip-rule:evenodd"
viewBox="0 0 0.040355 0.0433752"
 xmlns:xlink="http://www.w3.org/1999/xlink">
 <defs>
  <style type="text/css">
   <![CDATA[
    .str1 {stroke:#00A539;stroke-width:0.000793285}
    .str0 {stroke:#262425;stroke-width:0.000793285;stroke-linejoin:round}
    .fil0 {fill:none;fill-rule:nonzero}
   ]]>
  </style>
 </defs>
 <g id="Ã_x008d_Â_x00bc_Â_x00b2_Ã_x00a3__1">
  <metadata id="CorelCorpID_0Corel-Layer"/>
  <g id="_105892064">
   <path id="_105704336" class="fil0 str0" d="M0.0399589 0.00660835c0,0 -0.000424412,0.0283422 -0.0197813,0.0363709 -0.0193581,-0.00802718 -0.0197825,-0.0363709 -0.0197825,-0.0363709l0.0197825 -0.00621227 0.0197813 0.00621227zm-0.00449449 0.00342599c0,0 -0.00032795,0.0219031 -0.0152868,0.0281074 -0.01496,-0.00620316 -0.0152884,-0.0281074 -0.0152884,-0.0281074l0.0152884 -0.00480063 0.0152868 0.00480063z"/>
   <path id="_108514920" class="fil0 str1" d="M0.0187291 0.029315c-0.000509182,0 -0.000999476,-0.000203493 -0.00135913,-0.000568768l-0.00563158 -0.0057204 0.00271882 -0.00267632 0.00407087 0.00413507 0.00920788 -0.0123612 0.00305948 0.0022789 -0.0105369 0.0141449c-0.000332447,0.00044656 -0.000843652,0.000725379 -0.00139848,0.000763941 -4.36217e-005,2.36097e-006 -8.73558e-005,3.93495e-006 -0.000130977,3.93495e-006z"/>
  </g>
 </g>
</svg>
