<?xml version="1.0" encoding="utf-8"?>
<!-- Generator: Adobe Illustrator 16.0.0, SVG Export Plug-In . SVG Version: 6.00 Build 0)  -->
<!DOCTYPE svg PUBLIC "-//W3C//DTD SVG 1.1//EN" "http://www.w3.org/Graphics/SVG/1.1/DTD/svg11.dtd">
<svg version="1.1" id="Layer_1" xmlns="http://www.w3.org/2000/svg" xmlns:xlink="http://www.w3.org/1999/xlink" x="0px" y="0px"
	 width="213px" height="211px" viewBox="0 0 213 211" enable-background="new 0 0 213 211" xml:space="preserve">
<g>
	<path fill="#213B73" d="M204.564,203.473H10.012c-1.503,0-2.724-1.221-2.724-2.732V8.62c0-1.502,1.221-2.724,2.724-2.724h194.553
		c1.503,0,2.724,1.221,2.724,2.724V200.74C207.288,202.252,206.067,203.473,204.564,203.473z M12.735,198.017h189.097V11.343H12.735
		V198.017z"/>
	<path fill="#213B73" d="M71.271,203.473c-1.502,0-2.723-1.221-2.723-2.732V10.771c0-1.513,1.221-2.733,2.723-2.733
		c1.513,0,2.729,1.221,2.729,2.733v189.97C74,202.252,72.784,203.473,71.271,203.473z"/>
	<path fill="#56AE47" d="M48.563,33.15H30.852c-1.508,0-2.724-1.221-2.724-2.723c0-1.503,1.216-2.724,2.724-2.724h17.712
		c1.512,0,2.724,1.221,2.724,2.724C51.287,31.929,50.075,33.15,48.563,33.15z"/>
	<path fill="#56AE47" d="M48.563,58.356H30.852c-1.508,0-2.724-1.221-2.724-2.724c0-1.502,1.216-2.723,2.724-2.723h17.712
		c1.512,0,2.724,1.221,2.724,2.723C51.287,57.136,50.075,58.356,48.563,58.356z"/>
	<path fill="#56AE47" d="M48.563,83.572H30.852c-1.508,0-2.724-1.221-2.724-2.732c0-1.503,1.216-2.724,2.724-2.724h17.712
		c1.512,0,2.724,1.221,2.724,2.724C51.287,82.352,50.075,83.572,48.563,83.572z"/>
</g>
<g>
	<path fill="#56AE47" d="M133.091,97.299c-10.736,0-19.474-8.734-19.474-19.473c0-10.735,8.738-19.469,19.474-19.469
		c10.739,0,19.473,8.734,19.473,19.469C152.564,88.565,143.83,97.299,133.091,97.299z M133.091,60.555
		c-9.523,0-17.271,7.749-17.271,17.271c0,9.526,7.748,17.274,17.271,17.274c9.526,0,17.271-7.749,17.271-17.274
		C150.362,68.303,142.618,60.555,133.091,60.555z"/>
	<path fill="#56AE47" d="M157.462,137.712H109.66c-0.606,0-1.099-0.489-1.099-1.099V120.1c0-13.783,11.213-25,25-25s25,11.217,25,25
		v16.513C158.561,137.223,158.068,137.712,157.462,137.712z M110.759,135.514h45.604V120.1c0-12.57-10.228-22.801-22.802-22.801
		s-22.802,10.231-22.802,22.801V135.514z"/>
</g>
<g id="Layer_2">
</g>
<text transform="matrix(1 0 0 1 81 33.1499)" fill="#7D7C7D" font-family="'Montserrat-Regular'" font-size="11">Additional Info</text>
</svg>
