<?xml version="1.0" encoding="UTF-8"?>
<!DOCTYPE svg PUBLIC "-//W3C//DTD SVG 1.1//EN" "http://www.w3.org/Graphics/SVG/1.1/DTD/svg11.dtd">
<!-- Creator: CorelDRAW -->
<svg xmlns="http://www.w3.org/2000/svg" xml:space="preserve" width="0.886575in" height="0.915098in" style="shape-rendering:geometricPrecision; text-rendering:geometricPrecision; image-rendering:optimizeQuality; fill-rule:evenodd; clip-rule:evenodd"
viewBox="0 0 0.185228 0.191187"
 xmlns:xlink="http://www.w3.org/1999/xlink">
 <defs>
  <style type="text/css">
   <![CDATA[
    .fil0 {fill:#5F7D22}
   ]]>
  </style>
 </defs>
 <g id="Ã_x008d_Â_x00bc_Â_x00b2_Ã_x00a3__1">
  <metadata id="CorelCorpID_0Corel-Layer"/>
  <g id="_32096224">
   <path id="_99823064" class="fil0" d="M0.00670206 0.14357l0.171841 0 0 -0.0959551 -0.171841 0 0 0.0959551zm0.178525 0.00670206l-0.185227 0 0 -0.109359 0.185227 0 0 0.109359z"/>
   <path id="_86777048" class="fil0" d="M0.0354548 0.133164l0.114318 0c0.00144685,-0.00942302 0.00892291,-0.0168991 0.0183459,-0.0183459l1.64508e-006 -0.0384521c-0.00942302,-0.00144603 -0.0169007,-0.00890482 -0.0183484,-0.0183451l-0.114317 -8.2254e-007c-0.00144767,0.00944029 -0.00892538,0.0168999 -0.0183484,0.0183476l8.2254e-007 0.0384488c0.00942302,0.00144849 0.0168991,0.00892538 0.0183476,0.0183476zm0.120762 0.00668478l-0.127206 0 0 -0.0033428c0,-0.00840554 -0.00683942,-0.015245 -0.0152466,-0.015245l-0.00335843 0 0 -0.0513372 0.00336008 0c0.00840554,0 0.0152441,-0.0068386 0.0152441,-0.0152458l8.2254e-007 -0.00334198 0.127206 0 0 0.00334116c0,0.00840718 0.00683778,0.0152474 0.0152441,0.0152474l0.0033609 -8.2254e-007 0 0.0513372 -0.00335843 0c-0.00840718,0 -0.0152482,0.00683942 -0.0152482,0.0152466l1.64508e-006 0.00334116z"/>
   <path id="_80818144" class="fil0" d="M0.0926139 0.0691838c-0.0145573,0 -0.0264101,0.011852 -0.0264101,0.0264093 0,0.0145557 0.011852,0.0264093 0.0264093,0.0264093 0.0145573,-8.2254e-007 0.0264093,-0.011852 0.0264093,-0.0264093 1.64508e-006,-0.0145581 -0.0118528,-0.0264085 -0.0264085,-0.0264093zm0 0.059519c-0.0182431,0 -0.0331114,-0.0148493 -0.0331114,-0.0331097 1.64508e-006,-0.0182448 0.0148674,-0.0330933 0.0331105,-0.0330933 0.0182612,0 0.0331097,0.0148493 0.0331097,0.0330933 0,0.0182587 -0.0148493,0.0331105 -0.0331089,0.0331097z"/>
   <path id="_83667920" class="fil0" d="M0.0947492 0.111734l-0.00427145 0c-0.00260087,0 -0.00503148,-0.00101501 -0.00687397,-0.00284188 -0.00184331,-0.00185976 -0.00286079,-0.004306 -0.00286079,-0.00690687l0.00668478 -1.64508e-006c0,0.000827475 0.000326548,0.00158586 0.000895746,0.00217151 0.000586471,0.00056673 0.00134321,0.000879295 0.00215341,0.000879295l0.00427227 -2.46762e-006c0.000810202,0 0.00158503,-0.00030763 0.00215341,-0.000894101 0.00057002,-0.000569198 0.000878473,-0.00132593 0.000878473,-0.00215259 1.64508e-006,-0.000811847 -0.000310098,-0.00158586 -0.000878473,-0.00213696 -0.000568375,-0.000585649 -0.00134403,-0.000913019 -0.00215341,-0.000913019l-0.00427145 -8.2254e-007c-0.00260087,0 -0.00504875,-0.000998564 -0.00689206,-0.00284188 -0.00182522,-0.00182604 -0.0028427,-0.00427145 -0.0028427,-0.00689042 2.46762e-006,-0.00260334 0.00101666,-0.00504793 0.0028427,-0.00689124 0.00186141,-0.00184331 0.00428955,-0.0028427 0.00689124,-0.0028427l0.00427227 -8.2254e-007c0.00260087,0 0.00502983,0.00100021 0.00689042,0.00284352 0.00182686,0.00184249 0.0028427,0.00428955 0.0028427,0.00689124l-0.00669959 0c0,-0.000810202 -0.000311743,-0.00158503 -0.000880118,-0.00215341 -0.000568375,-0.00057002 -0.00134403,-0.000895746 -0.00215341,-0.000895746l-0.00427145 -1.64508e-006c-0.000810202,0 -0.00156858,0.000329016 -0.00215423,0.000897391 -0.000568375,0.000568375 -0.000895746,0.00134321 -0.000895746,0.00215341 0,0.000807734 0.000326548,0.00158503 0.000895746,0.00215341 0.000586471,0.000567553 0.00134321,0.000895746 0.00215341,0.000895746l0.00427227 -8.2254e-007c0.00260087,0 0.00504793,0.00101748 0.00689042,0.00284352 0.00182686,0.00184331 0.0028427,0.00428955 0.0028427,0.00689124 1.64508e-006,0.00259923 -0.00101584,0.00504711 -0.0028427,0.00689042 -0.00185894,0.00184249 -0.00428955,0.00285915 -0.00689042,0.00285833z"/>
   <polygon id="_96378848" class="fil0" points="0.0959551,0.08281 0.0892727,0.08281 0.0892727,0.0747656 0.0959551,0.0747656 "/>
   <polygon id="_85746904" class="fil0" points="0.0959551,0.11642 0.0892727,0.11642 0.0892727,0.108393 0.0959551,0.108393 "/>
   <polygon id="_85819360" class="fil0" points="0.157319,0.0989343 0.136473,0.0989343 0.136473,0.0922503 0.157319,0.0922503 "/>
   <polygon id="_100700488" class="fil0" points="0.0487536,0.0989343 0.0279252,0.0989343 0.0279252,0.0922503 0.0487536,0.0922503 "/>
   <path id="_81545656" class="fil0" d="M0.0429144 0.0272869l-0.00473865 -0.00472056c0.0145392,-0.0145573 0.0338681,-0.0225664 0.0544373,-0.0225664 0.0205693,-8.2254e-007 0.0398981,0.00801072 0.0544373,0.0225672l-0.00473701 0.00471973c-0.0132643,-0.0132659 -0.0309226,-0.0205857 -0.0497003,-0.0205857 -0.0187769,0 -0.036418,0.00732143 -0.0496987,0.0205857z"/>
   <polygon id="_82546272" class="fil0" points="0.148034,0.0282699 0.126827,0.0282699 0.126827,0.0215859 0.141332,0.0215859 0.141332,0.00707878 0.148034,0.00707878 "/>
   <path id="_82750832" class="fil0" d="M0.0926139 0.191186c-0.0205684,0 -0.039899,-0.0080099 -0.054439,-0.0225499l0.00473948 -0.00473783c0.0132643,0.0132816 0.0309209,0.0205865 0.0496987,0.0205865 0.0187786,-8.2254e-007 0.0364352,-0.00730416 0.0497003,-0.0205865l0.00473865 0.00473619c-0.01454,0.0145392 -0.0338706,0.0225516 -0.0544382,0.0225516z"/>
   <polygon id="_84803088" class="fil0" points="0.0438949,0.184122 0.0371936,0.184122 0.0371936,0.162916 0.0584012,0.162916 0.0584012,0.169618 0.0438949,0.169618 "/>
   <polygon id="_85351728" class="fil0" points="0.111219,0.169618 0.103777,0.169618 0.103777,0.162916 0.111219,0.162916 "/>
   <polygon id="_86915792" class="fil0" points="0.0963342,0.169618 0.0888927,0.169618 0.0888927,0.162916 0.0963342,0.162916 "/>
   <polygon id="_87357096" class="fil0" points="0.0814504,0.169618 0.074008,0.169618 0.074008,0.162916 0.0814504,0.162916 "/>
   <polygon id="_84801040" class="fil0" points="0.111219,0.0282699 0.103777,0.0282699 0.103777,0.0215859 0.111219,0.0215859 "/>
   <polygon id="_88185480" class="fil0" points="0.0963342,0.0282699 0.0888927,0.0282699 0.0888927,0.0215859 0.0963342,0.0215859 "/>
   <polygon id="_31915928" class="fil0" points="0.0814504,0.0282699 0.074008,0.0282699 0.074008,0.0215859 0.0814504,0.0215859 "/>
  </g>
 </g>
</svg>
